SplineFontDB: 3.2
FontName: Dreluhu
FullName: Dreluhu
FamilyName: Dreluhu
Weight: Book
Copyright: Copyright (c) 2019, Jack Humbert
UComments: "2019-8-23: Created with FontForge (http://fontforge.org)"
Version: 0.1
DefaultBaseFilename: fontforge-15
StrokeWidth: 66
ItalicAngle: 0
UnderlinePosition: -300
UnderlineWidth: 37
Ascent: 1300
Descent: 200
InvalidEm: 0
sfntRevision: 0x0000199a
LayerCount: 2
Layer: 0 0 "Back" 1
Layer: 1 0 "Fore" 0
XUID: [1021 647 -312734098 29385]
StyleMap: 0x0040
FSType: 0
OS2Version: 3
OS2_WeightWidthSlopeOnly: 0
OS2_UseTypoMetrics: 0
CreationTime: 1566577596
ModificationTime: 1568001005
PfmFamily: 17
TTFWeight: 400
TTFWidth: 5
LineGap: 135
VLineGap: 135
Panose: 2 1 6 0 3 1 1 1 1 1
OS2TypoAscent: 0
OS2TypoAOffset: 1
OS2TypoDescent: 0
OS2TypoDOffset: 1
OS2TypoLinegap: 135
OS2WinAscent: 0
OS2WinAOffset: 1
OS2WinDescent: 0
OS2WinDOffset: 1
HheadAscent: 0
HheadAOffset: 1
HheadDescent: 0
HheadDOffset: 1
OS2Vendor: 'OLKB'
OS2CodePages: 00020000.00000000
Lookup: 6 0 0 "semivowels" { "semivowels contextual 0"  "semivowels contextual 1"  } ['liga' ('latn' <'dflt' > 'DFLT' <'dflt' > ) ]
Lookup: 1 0 0 "Single Substitution lookup 1" { "Single Substitution lookup 1 subtable"  } []
Lookup: 1 0 0 "Single Substitution lookup 2" { "Single Substitution lookup 2 subtable"  } []
Lookup: 4 0 1 "diphthongs" { "diphthongs subtable"  } ['liga' ('latn' <'dflt' > 'DFLT' <'dflt' > ) ]

StartChar: ny
Encoding: 0 60256 0
Width: 900
VWidth: 3741
GlyphClass: 2
Flags: HW
HStem: 400 100<199.987 699.987> 700 100<199.994 699.991 799.994 800> 1000 100<199.999 699.999>
VStem: 100 99.9939<500 700 800 1000> 699.987 99.9988<500 700 800 1000>
CounterMasks: 1 e0
AnchorPoint: "Above" 0 0 basechar 0
LayerCount: 2
Back
SplineSet
150 1050 m 5
 750 1050 l 5
 749.985351562 450 l 5
 149.985351562 450 l 5
 150 1050 l 5
150 750 m 5
 750 750 l 1029
EndSplineSet
Fore
SplineSet
150 1100 m 2
 750 1100 l 2
 780.264682733 1100 800.000523961 1071.46084631 799.999999985 1049.9987793 c 0
 799.999999985 966.665852865 799.993896499 883.332926432 799.993896499 800 c 1
 800 800 l 1
 800 750 l 1
 800 700 l 1
 799.991455093 700 l 1
 799.991455093 616.666259766 799.985351548 533.332519531 799.985351548 449.998779297 c 0
 799.9846581 421.595155168 775.032284827 400 749.985351562 400 c 2
 149.985351562 400 l 2
 119.720668829 400 99.9848276012 428.539153689 99.9853515774 450.001220703 c 2
 100.000000015 1050.0012207 l 2
 100.000693463 1078.40484483 124.953066735 1100 150 1100 c 2
699.993896469 800 m 1
 699.993896469 866.666666667 699.998779282 933.333333333 699.998779282 1000 c 1
 199.998779312 1000 l 1
 199.998779312 933.333333333 199.993896499 866.666666667 199.993896499 800 c 1
 699.993896469 800 l 1
699.991455063 700 m 1
 199.991455093 700 l 1
 199.991455093 633.333333333 199.986572281 566.666666667 199.986572281 500 c 1
 699.986572251 500 l 1
 699.986572251 566.666666667 699.991455063 633.333333333 699.991455063 700 c 1
EndSplineSet
Substitution2: "Single Substitution lookup 82 subtable" ny.cvc.3
Substitution2: "Single Substitution lookup 71 subtable" ny.cvc.1
Substitution2: "Single Substitution lookup 64 subtable" ny.ccv.2
Substitution2: "Single Substitution lookup 60 subtable" ny.cvc.3
Substitution2: "Single Substitution lookup 56 subtable" ny.cvc.1
Substitution2: "Single Substitution lookup 54 subtable" ny.ccv.1
Substitution2: "Single Substitution lookup 31 subtable" ny.ccv.2
Substitution2: "Single Substitution lookup 18 subtable" ny.ccv.2
EndChar

StartChar: dy
Encoding: 1 60257 1
Width: 900
VWidth: 3741
Flags: HW
HStem: 400 99.9999<200 799.917> 700 100<200 500> 1000 100<200 800>
VStem: 100 100<499.083 700 800 1000>
CounterMasks: 1 e0
AnchorPoint: "Above" 0 0 basechar 0
LayerCount: 2
Back
SplineSet
450 750 m 1
 150 750 l 1025
750 1050 m 1
 150 1050 l 1
 150 449 l 1
 750 450 l 1025
EndSplineSet
Fore
SplineSet
800 1050 m 1
 800 1000 l 1
 750 1000 l 1
 200 1000 l 1
 200 800 l 1
 450 800 l 1
 500 800 l 1
 500 750 l 1
 500 700 l 1
 450 700 l 1
 200 700 l 1
 200 499.083402778 l 1
 749.916666782 499.999930556 l 1
 799.916597338 500.083263773 l 1
 799.999930556 450.083333218 l 1
 800.083263773 400.083402662 l 1
 750.083333218 400.000069444 l 1
 150.083333218 399.000069444 l 2
 128.469380553 398.96404619 100 418.761867305 100 449 c 2
 100 700 l 1
 100 750 l 1
 100 800 l 1
 100 1050 l 2
 100 1071.45980867 119.734924289 1100 150 1100 c 2
 750 1100 l 1
 800 1100 l 1
 800 1050 l 1
EndSplineSet
Substitution2: "Single Substitution lookup 82 subtable" dy.cvc.3
Substitution2: "Single Substitution lookup 71 subtable" dy.cvc.1
Substitution2: "Single Substitution lookup 64 subtable" dy.ccv.2
Substitution2: "Single Substitution lookup 60 subtable" dy.cvc.3
Substitution2: "Single Substitution lookup 56 subtable" dy.cvc.1
Substitution2: "Single Substitution lookup 54 subtable" dy.ccv.1
Substitution2: "Single Substitution lookup 36 subtable" dy.ccv.2
Substitution2: "Single Substitution lookup 23 subtable" dy.ccv.2
EndChar

StartChar: ty
Encoding: 2 60258 2
Width: 900
VWidth: 3741
Flags: HW
HStem: 398.917 99.9999<100.083 700> 700 100<400 700> 1000 100<100 700>
VStem: 700 100<499.917 700 800 1000>
CounterMasks: 1 e0
AnchorPoint: "Above" 0 0 basechar 0
LayerCount: 2
Back
SplineSet
450 750 m 1
 750 750 l 1025
150 1050 m 1
 750 1050 l 1
 750 450 l 1
 150 449 l 1025
EndSplineSet
Fore
SplineSet
100 1050 m 1
 100 1100 l 1
 150 1100 l 1
 750 1100 l 2
 780.265075711 1100 800 1071.45980867 800 1050 c 2
 800 800 l 1
 800 750 l 1
 800 700 l 1
 800 450 l 2
 800 421.565725809 774.979018186 400.041562253 750.083333218 400.000069444 c 2
 150.083333218 399.000069444 l 1
 100.083402662 398.916736227 l 1
 100.000069444 448.916666782 l 1
 99.9167362267 498.916597338 l 1
 149.916666782 498.999930556 l 1
 700 499.916736111 l 1
 700 700 l 1
 450 700 l 1
 400 700 l 1
 400 750 l 1
 400 800 l 1
 450 800 l 1
 700 800 l 1
 700 1000 l 1
 150 1000 l 1
 100 1000 l 1
 100 1050 l 1
EndSplineSet
Substitution2: "Single Substitution lookup 82 subtable" ty.cvc.3
Substitution2: "Single Substitution lookup 71 subtable" ty.cvc.1
Substitution2: "Single Substitution lookup 64 subtable" ty.ccv.2
Substitution2: "Single Substitution lookup 60 subtable" ty.cvc.3
Substitution2: "Single Substitution lookup 56 subtable" ty.cvc.1
Substitution2: "Single Substitution lookup 54 subtable" ty.ccv.1
Substitution2: "Single Substitution lookup 28 subtable" ty.ccv.2
Substitution2: "Single Substitution lookup 15 subtable" ty.ccv.2
EndChar

StartChar: zy
Encoding: 3 60259 3
Width: 900
VWidth: 3741
Flags: HW
HStem: 400 100<200 605.49> 700 100<200 639.738>
VStem: 100 100<500 700 800 1100>
AnchorPoint: "Above" 0 0 basechar 0
LayerCount: 2
Back
SplineSet
681 750 m 25
 150 750 l 1025
150 1050 m 25
 150 450 l 1
 649.5 450 l 1
 652.5 549 674.5 657 715.5 774 c 128
 756.5 891 801.5 982 850.5 1047 c 1024
EndSplineSet
Fore
SplineSet
150 1100 m 1
 200 1100 l 1
 200 1050 l 1
 200 800 l 1
 671.657586494 800 l 1
 712.862145799 915.647692527 758.394324546 1007.88047715 810.573830588 1077.09818925 c 2
 840.672019837 1117.02435866 l 1
 880.598189249 1086.92616941 l 1
 920.524358661 1056.82798016 l 1
 890.426169412 1016.90181075 l 2
 846.021341009 957.997446542 802.603599348 871.373924857 762.686626801 757.464515395 c 0
 723.005809832 644.229013311 702.285854565 541.175798728 699.477058957 448.485543668 c 0
 698.690299603 422.522484989 676.521170147 400 649.5 400 c 2
 150 400 l 2
 128.540191335 400 100 419.734924289 100 450 c 2
 100 700 l 1
 100 750 l 1
 100 800 l 1
 100 1050 l 1
 100 1100 l 1
 150 1100 l 1
200 700 m 1
 200 500 l 1
 602.364218044 500 l 1
 607.956730638 564.522400155 620.431325267 630.843897999 639.737953809 700 c 1
 200 700 l 1
EndSplineSet
Substitution2: "Single Substitution lookup 82 subtable" zy.cvc.3
Substitution2: "Single Substitution lookup 71 subtable" zy.cvc.1
Substitution2: "Single Substitution lookup 64 subtable" zy.ccv.2
Substitution2: "Single Substitution lookup 60 subtable" zy.cvc.3
Substitution2: "Single Substitution lookup 56 subtable" zy.cvc.1
Substitution2: "Single Substitution lookup 54 subtable" zy.ccv.1
Substitution2: "Single Substitution lookup 46 subtable" zy.ccv.2
EndChar

StartChar: sy
Encoding: 4 60260 4
Width: 900
VWidth: 3741
Flags: HW
HStem: 700 100<260.262 700> 1000 100<294.51 700>
VStem: 700 100<400 700 800 1000>
AnchorPoint: "Above" 0 0 basechar 0
LayerCount: 2
Back
SplineSet
219 750 m 5
 750 750 l 1029
750 450 m 5
 750 1050 l 5
 250.5 1050 l 5
 247.5 951 225.5 843 184.5 726 c 132
 143.5 609 98.5 518 49.5 453 c 1028
EndSplineSet
Fore
SplineSet
750 400 m 1
 700 400 l 1
 700 450 l 1
 700 700 l 1
 228.342413506 700 l 1
 187.137854201 584.352307473 141.605675454 492.119522848 89.4261694121 422.901810751 c 2
 59.327980163 382.975641339 l 1
 19.4018107509 413.073830588 l 1
 -20.5243586612 443.172019837 l 1
 9.5738305879 483.098189249 l 2
 53.9786589915 542.002553458 97.3964006524 628.626075143 137.313373199 742.535484605 c 0
 176.994190168 855.770986689 197.714145435 958.824201272 200.522941043 1051.51445633 c 0
 201.309700397 1077.47751501 223.478829853 1100 250.5 1100 c 2
 750 1100 l 2
 771.459808665 1100 800 1080.26507571 800 1050 c 2
 800 800 l 1
 800 750 l 1
 800 700 l 1
 800 450 l 1
 800 400 l 1
 750 400 l 1
700 800 m 1
 700 1000 l 1
 297.635781956 1000 l 1
 292.043269362 935.477599845 279.568674733 869.156102001 260.262046191 800 c 1
 700 800 l 1
EndSplineSet
Substitution2: "Single Substitution lookup 82 subtable" sy.cvc.3
Substitution2: "Single Substitution lookup 71 subtable" sy.cvc.1
Substitution2: "Single Substitution lookup 64 subtable" sy.ccv.2
Substitution2: "Single Substitution lookup 60 subtable" sy.cvc.3
Substitution2: "Single Substitution lookup 56 subtable" sy.cvc.1
Substitution2: "Single Substitution lookup 54 subtable" sy.ccv.1
Substitution2: "Single Substitution lookup 41 subtable" sy.ccv.2
EndChar

StartChar: gy
Encoding: 5 60261 5
Width: 900
VWidth: 3741
Flags: HW
AnchorPoint: "Above" 0 0 basechar 0
LayerCount: 2
Back
SplineSet
750 1050 m 1
 150 750 l 1
 750 450 l 1025
EndSplineSet
Fore
SplineSet
794.72135955 1072.36067977 m 1
 817.082039325 1027.63932023 l 1
 772.360679775 1005.27864045 l 1
 261.803398875 750 l 1
 772.360679775 494.72135955 l 1
 817.082039325 472.360679775 l 1
 794.72135955 427.639320225 l 1
 772.360679775 382.917960675 l 1
 727.639320225 405.27864045 l 1
 127.639320225 705.27864045 l 2
 121.821159529 708.187720798 112.090373899 716.033053031 107.170848165 724.199539673 c 0
 92.3403267685 748.818428043 101.932760292 781.868079584 127.639320225 794.72135955 c 2
 727.639320225 1094.72135955 l 1
 772.360679775 1117.08203932 l 1
 794.72135955 1072.36067977 l 1
EndSplineSet
Substitution2: "Single Substitution lookup 82 subtable" gy.cvc.3
Substitution2: "Single Substitution lookup 71 subtable" gy.cvc.1
Substitution2: "Single Substitution lookup 64 subtable" gy.ccv.2
Substitution2: "Single Substitution lookup 60 subtable" gy.cvc.3
Substitution2: "Single Substitution lookup 56 subtable" gy.cvc.1
Substitution2: "Single Substitution lookup 54 subtable" gy.ccv.1
Substitution2: "Single Substitution lookup 37 subtable" gy.ccv.2
Substitution2: "Single Substitution lookup 24 subtable" gy.ccv.2
EndChar

StartChar: jy
Encoding: 6 60262 6
Width: 900
VWidth: 3741
Flags: HW
HStem: 599.5 100<100 392.526 507.316 798.5> 1000 100<100 269.939 629.16 798.5>
VStem: 400 100<400 599.5>
AnchorPoint: "Above" 0 0 basechar 0
LayerCount: 2
Back
SplineSet
151.5 750 m 1
 750 750 l 1025
450 555 m 1
 450 450 l 1025
150 1050 m 0
 351 1050 451 885 450 555 c 1
 449 718 473.75 841.25 524.25 924.75 c 0
 574.75 1008.25 649.5 1050 748.5 1050 c 1024
EndSplineSet
Fore
SplineSet
100 1050 m 1
 100 1100 l 1
 150 1100 l 2
 291.316043938 1100 396.344062909 1023.57484907 450.261225254 887.570968077 c 1
 459.336303948 910.058543509 469.798972449 931.334239348 481.466039054 950.625329674 c 0
 540.359021289 1048.00283495 633.86452017 1100 748.5 1100 c 2
 798.5 1100 l 1
 798.5 1050 l 1
 798.5 1000 l 1
 748.5 1000 l 2
 665.13547983 1000 609.140978711 968.497165046 567.033960946 898.874670326 c 0
 541.795949991 857.144493795 522.492285099 800.67025312 511.306150924 728.692636833 c 0
 509.835683256 719.230855323 508.50486336 709.498585139 507.315688945 699.5 c 1
 748.5 699.5 l 1
 798.5 699.5 l 1
 798.5 649.5 l 1
 798.5 599.5 l 1
 748.5 599.5 l 1
 500.413211792 599.5 l 1
 500.195293066 590.969102216 500.05729106 582.301173455 500 573.497873056 c 2
 500 564.808713249 l 2
 500.009838941 561.525250019 500 558.22696047 500 554.924822144 c 2
 500 450 l 1
 500 400 l 1
 450 400 l 1
 400 400 l 1
 400 450 l 1
 400 554.84798416 l 2
 399.971532487 559.570956997 399.964745999 564.544072502 399.978485168 569.344661604 c 0
 399.910172558 579.576729399 399.738810558 589.629902012 399.465582854 599.5 c 1
 150 599.5 l 1
 100 599.5 l 1
 100 649.5 l 1
 100 699.5 l 1
 150 699.5 l 1
 392.525613474 699.5 l 1
 391.307982138 709.866747084 389.944760261 719.937693839 388.438105355 729.705222359 c 0
 358.190555313 925.797775929 279.26884885 1000 150 1000 c 2
 100 1000 l 1
 100 1050 l 1
EndSplineSet
Substitution2: "Single Substitution lookup 82 subtable" jy.cvc.3
Substitution2: "Single Substitution lookup 71 subtable" jy.cvc.1
Substitution2: "Single Substitution lookup 64 subtable" jy.ccv.2
Substitution2: "Single Substitution lookup 60 subtable" jy.cvc.3
Substitution2: "Single Substitution lookup 56 subtable" jy.cvc.1
Substitution2: "Single Substitution lookup 54 subtable" jy.ccv.1
Substitution2: "Single Substitution lookup 44 subtable" jy.ccv.2
EndChar

StartChar: xy
Encoding: 7 60263 7
Width: 900
VWidth: 3741
Flags: HW
VStem: 400 100<663.643 1099>
AnchorPoint: "Above" 0 0 basechar 0
LayerCount: 2
Back
SplineSet
450 833 m 5
 450 1049 l 1029
748.5 449 m 4
 666.913085938 479.217773438 610.436523438 505.811523438 579.0703125 528.78125 c 4
 493.0234375 591.795898438 450 693.202148438 450 833 c 5
 450 778 444 729.5 432 687.5 c 4
 420 645.5 405.5 611.75 388.5 586.25 c 4
 371.5 560.75 348.5 538.5 319.5 519.5 c 4
 290.5 500.5 264.25 486.5 240.75 477.5 c 4
 217.25 468.5 187 459 150 449 c 1028
EndSplineSet
Fore
SplineSet
500 833 m 2
 500 703.165711837 538.41442146 620.528660705 608.612151413 569.120805695 c 0
 632.351117608 551.73657132 686.292316291 525.359456262 765.865918856 495.887363567 c 2
 812.753282423 478.521444711 l 1
 778.021444711 384.746717577 l 1
 731.134081144 402.112636433 l 2
 647.533855584 433.076090613 588.521929267 459.886475555 549.528473587 488.441694305 c 0
 509.347636466 517.867298955 476.143215386 556.146629467 452.609613405 598.812085395 c 1
 445.244837842 583.219199334 438.473819532 571.071947411 430.102514717 558.514990189 c 0
 408.967434729 526.812370206 380.717472747 499.832358616 346.901312866 477.676943521 c 0
 315.755363481 457.270976683 286.669990111 441.544976927 258.63236333 430.807162415 c 0
 232.753393425 420.896067558 201.136015977 411.02657757 163.045451257 400.731830349 c 2
 114.777281606 387.686379091 l 1
 88.6863790914 484.222718394 l 1
 136.954548743 497.268169651 l 2
 172.863984023 506.97342243 201.746606575 516.103932442 222.86763667 524.192837585 c 0
 241.830009889 531.455023073 265.244636519 543.729023317 292.098687134 561.323056479 c 0
 316.282527253 577.167641384 334.032565271 594.687629794 346.897485283 613.985009811 c 0
 359.902255412 633.492165005 372.888818533 662.613612096 383.923802618 701.236056395 c 0
 394.338620788 737.687919989 400 781.612298637 400 833 c 2
 400 1049 l 1
 400 1099 l 1
 450 1099 l 1
 500 1099 l 1
 500 1049 l 1
 500 833 l 2
EndSplineSet
Substitution2: "Single Substitution lookup 82 subtable" xy.cvc.3
Substitution2: "Single Substitution lookup 71 subtable" xy.cvc.1
Substitution2: "Single Substitution lookup 64 subtable" xy.ccv.2
Substitution2: "Single Substitution lookup 60 subtable" xy.cvc.3
Substitution2: "Single Substitution lookup 56 subtable" xy.cvc.1
Substitution2: "Single Substitution lookup 54 subtable" xy.ccv.1
EndChar

StartChar: iy
Encoding: 8 60264 8
Width: 900
VWidth: 3741
Flags: HW
HStem: 1000 100<200 800>
VStem: 100 100<400 1000>
AnchorPoint: "Above" 0 0 basechar 0
LayerCount: 2
Back
SplineSet
150 450 m 29
 150 1050 l 29
 750 1050 l 1053
EndSplineSet
Fore
SplineSet
150 400 m 1
 100 400 l 1
 100 450 l 1
 100 1050 l 2
 100 1080.26507571 128.540191335 1100 150 1100 c 2
 750 1100 l 1
 800 1100 l 1
 800 1050 l 1
 800 1000 l 1
 750 1000 l 1
 200 1000 l 1
 200 450 l 1
 200 400 l 1
 150 400 l 1
EndSplineSet
Substitution2: "Single Substitution lookup 82 subtable" iy.cvc.3
Substitution2: "Single Substitution lookup 71 subtable" iy.cvc.1
Substitution2: "Single Substitution lookup 64 subtable" iy.ccv.2
Substitution2: "Single Substitution lookup 60 subtable" iy.cvc.3
Substitution2: "Single Substitution lookup 56 subtable" iy.cvc.1
Substitution2: "Single Substitution lookup 54 subtable" iy.ccv.1
EndChar

StartChar: ry
Encoding: 9 60265 9
Width: 900
VWidth: 3741
Flags: HW
AnchorPoint: "Above" 0 0 basechar 0
LayerCount: 2
Back
SplineSet
150 450 m 25
 748.5 1050 l 1025
150 1050 m 25
 748.5 450 l 1025
EndSplineSet
Fore
SplineSet
114.688938082 1085.39956082 m 1
 150.088498902 1120.71062274 l 1
 185.39956082 1085.31106192 l 1
 449.25 820.799343441 l 1
 713.10043918 1085.31106192 l 1
 748.411501098 1120.71062274 l 1
 783.811061918 1085.39956082 l 1
 819.210622738 1050.0884989 l 1
 783.89956082 1014.68893808 l 1
 519.872345083 750 l 1
 783.89956082 485.311061918 l 1
 819.210622738 449.911501098 l 1
 783.811061918 414.60043918 l 1
 748.411501098 379.289377262 l 1
 713.10043918 414.688938082 l 1
 449.25 679.200656559 l 1
 185.39956082 414.688938082 l 1
 150.088498902 379.289377262 l 1
 114.688938082 414.60043918 l 1
 79.2893772624 449.911501098 l 1
 114.60043918 485.311061918 l 1
 378.627654917 750 l 1
 114.60043918 1014.68893808 l 1
 79.2893772624 1050.0884989 l 1
 114.688938082 1085.39956082 l 1
EndSplineSet
Substitution2: "Single Substitution lookup 82 subtable" ry.cvc.3
Substitution2: "Single Substitution lookup 71 subtable" ry.cvc.1
Substitution2: "Single Substitution lookup 64 subtable" ry.ccv.2
Substitution2: "Single Substitution lookup 60 subtable" ry.cvc.3
Substitution2: "Single Substitution lookup 56 subtable" ry.cvc.1
Substitution2: "Single Substitution lookup 54 subtable" ry.ccv.1
Substitution2: "Single Substitution lookup 52 subtable" ry.ccv.2
Substitution2: "Single Substitution lookup 50 subtable" ry.ccv.2
Substitution2: "Single Substitution lookup 48 subtable" ry.ccv.2
Substitution2: "Single Substitution lookup 45 subtable" ry.ccv.2
Substitution2: "Single Substitution lookup 43 subtable" ry.ccv.2
Substitution2: "Single Substitution lookup 40 subtable" ry.ccv.2
Substitution2: "Single Substitution lookup 33 subtable" ry.ccv.2
Substitution2: "Single Substitution lookup 20 subtable" ry.ccv.2
Substitution2: "Single Substitution lookup 12 subtable" ry.ccv.2
Substitution2: "Single Substitution lookup 10 subtable" ry.ccv.2
Substitution2: "Single Substitution lookup 8 subtable" ry.ccv.2
Substitution2: "Single Substitution lookup 6 subtable" ry.ccv.2
EndChar

StartChar: my
Encoding: 16 60272 16
Width: 900
VWidth: 3741
Flags: HW
HStem: 400 100<200 698.5> 1000 100<200 698.5>
VStem: 100 100<500 1000> 698.5 100<500 1000>
AnchorPoint: "Above" 0 0 basechar 0
LayerCount: 2
Back
SplineSet
150 1050 m 25
 748.5 1050 l 1
 748.5 450 l 1
 150 450 l 1
 150 1050 l 25
EndSplineSet
Fore
SplineSet
150 1100 m 2
 748.5 1100 l 2
 778.765075711 1100 798.5 1071.45980867 798.5 1050 c 2
 798.5 450 l 2
 798.5 419.734924289 769.959808665 400 748.5 400 c 2
 150 400 l 2
 119.734924289 400 100 428.540191335 100 450 c 2
 100 1050 l 2
 100 1080.26507571 128.540191335 1100 150 1100 c 2
200 1000 m 1
 200 500 l 1
 698.5 500 l 1
 698.5 1000 l 1
 200 1000 l 1
EndSplineSet
Substitution2: "Single Substitution lookup 82 subtable" my.cvc.3
Substitution2: "Single Substitution lookup 71 subtable" my.cvc.1
Substitution2: "Single Substitution lookup 64 subtable" my.ccv.2
Substitution2: "Single Substitution lookup 60 subtable" my.cvc.3
Substitution2: "Single Substitution lookup 56 subtable" my.cvc.1
Substitution2: "Single Substitution lookup 54 subtable" my.ccv.1
Substitution2: "Single Substitution lookup 38 subtable" my.ccv.2
Substitution2: "Single Substitution lookup 30 subtable" my.ccv.2
Substitution2: "Single Substitution lookup 25 subtable" my.ccv.2
Substitution2: "Single Substitution lookup 17 subtable" my.ccv.2
EndChar

StartChar: by
Encoding: 17 60273 17
Width: 900
VWidth: 3741
Flags: HW
HStem: 400 100<200 798.5> 1000 100<200 798.5>
VStem: 100 100<500 1000>
AnchorPoint: "Above" 0 0 basechar 0
LayerCount: 2
Back
SplineSet
748.5 1050 m 25
 150 1050 l 1
 150 450 l 1
 748.5 450 l 1025
EndSplineSet
Fore
SplineSet
798.5 1050 m 1
 798.5 1000 l 1
 748.5 1000 l 1
 200 1000 l 1
 200 500 l 1
 748.5 500 l 1
 798.5 500 l 1
 798.5 450 l 1
 798.5 400 l 1
 748.5 400 l 1
 150 400 l 2
 128.540191335 400 100 419.734924289 100 450 c 2
 100 1050 l 2
 100 1071.45980867 119.734924289 1100 150 1100 c 2
 748.5 1100 l 1
 798.5 1100 l 1
 798.5 1050 l 1
EndSplineSet
Substitution2: "Single Substitution lookup 82 subtable" by.cvc.3
Substitution2: "Single Substitution lookup 71 subtable" by.cvc.1
Substitution2: "Single Substitution lookup 64 subtable" by.ccv.2
Substitution2: "Single Substitution lookup 60 subtable" by.cvc.3
Substitution2: "Single Substitution lookup 56 subtable" by.cvc.1
Substitution2: "Single Substitution lookup 54 subtable" by.ccv.1
Substitution2: "Single Substitution lookup 34 subtable" by.ccv.2
Substitution2: "Single Substitution lookup 21 subtable" by.ccv.2
EndChar

StartChar: py
Encoding: 18 60274 18
Width: 900
VWidth: 3741
Flags: HW
HStem: 400 100<100 698.5> 1000 100<100 698.5>
VStem: 698.5 100<500 1000>
AnchorPoint: "Above" 0 0 basechar 0
LayerCount: 2
Back
SplineSet
150 1050 m 25
 748.5 1050 l 1
 748.5 450 l 1
 150 450 l 1025
EndSplineSet
Fore
SplineSet
100 1050 m 1
 100 1100 l 1
 150 1100 l 1
 748.5 1100 l 2
 778.765075711 1100 798.5 1071.45980867 798.5 1050 c 2
 798.5 450 l 2
 798.5 419.734924289 769.959808665 400 748.5 400 c 2
 150 400 l 1
 100 400 l 1
 100 450 l 1
 100 500 l 1
 150 500 l 1
 698.5 500 l 1
 698.5 1000 l 1
 150 1000 l 1
 100 1000 l 1
 100 1050 l 1
EndSplineSet
Substitution2: "Single Substitution lookup 82 subtable" py.cvc.3
Substitution2: "Single Substitution lookup 71 subtable" py.cvc.1
Substitution2: "Single Substitution lookup 64 subtable" py.ccv.2
Substitution2: "Single Substitution lookup 60 subtable" py.cvc.3
Substitution2: "Single Substitution lookup 56 subtable" py.cvc.1
Substitution2: "Single Substitution lookup 54 subtable" py.ccv.1
Substitution2: "Single Substitution lookup 26 subtable" py.ccv.2
Substitution2: "Single Substitution lookup 13 subtable" py.ccv.2
EndChar

StartChar: vy
Encoding: 19 60275 19
Width: 900
VWidth: 3741
Flags: HW
HStem: 400 100<200 605.489>
VStem: 100 100<500 1100>
AnchorPoint: "Above" 0 0 basechar 0
LayerCount: 2
Back
SplineSet
150 1050 m 29
 150 450 l 5
 649.5 450 l 5
 652.5 549 674.5 657 715.5 774 c 4
 756.5 891 801.5 982 850.5 1047 c 1028
EndSplineSet
Fore
SplineSet
150 1100 m 1
 200 1100 l 1
 200 1050 l 1
 200 500 l 1
 602.364218044 500 l 1
 610.352925932 592.167983246 632.3846044 688.007046813 668.313373199 790.535484605 c 0
 710.396400652 910.626075143 756.978658991 1006.00255346 810.573830588 1077.09818925 c 2
 840.672019837 1117.02435866 l 1
 880.598189249 1086.92616941 l 1
 920.524358661 1056.82798016 l 1
 890.426169412 1016.90181075 l 2
 846.021341009 957.997446542 802.603599348 871.373924857 762.686626801 757.464515395 c 0
 723.005809832 644.229013311 702.285854565 541.175798728 699.477058957 448.485543668 c 0
 698.690299603 422.522484989 676.521170147 400 649.5 400 c 2
 150 400 l 2
 128.540191335 400 100 419.734924289 100 450 c 2
 100 1050 l 1
 100 1100 l 1
 150 1100 l 1
EndSplineSet
Substitution2: "Single Substitution lookup 82 subtable" vy.cvc.3
Substitution2: "Single Substitution lookup 71 subtable" vy.cvc.1
Substitution2: "Single Substitution lookup 64 subtable" vy.ccv.2
Substitution2: "Single Substitution lookup 60 subtable" vy.cvc.3
Substitution2: "Single Substitution lookup 56 subtable" vy.cvc.1
Substitution2: "Single Substitution lookup 54 subtable" vy.ccv.1
Substitution2: "Single Substitution lookup 35 subtable" vy.ccv.2
Substitution2: "Single Substitution lookup 22 subtable" vy.ccv.2
EndChar

StartChar: fy
Encoding: 20 60276 20
Width: 900
VWidth: 3741
Flags: HW
HStem: 1000 100<294.511 700>
VStem: 700 100<400 1000>
AnchorPoint: "Above" 0 0 basechar 0
LayerCount: 2
Back
SplineSet
750 450 m 5
 750 1050 l 5
 250.5 1050 l 5
 247.5 951 225.5 843 184.5 726 c 4
 143.5 609 98.5 518 49.5 453 c 1028
EndSplineSet
Fore
SplineSet
750 400 m 1
 700 400 l 1
 700 450 l 1
 700 1000 l 1
 297.635781956 1000 l 1
 289.647074068 907.832016754 267.6153956 811.992953187 231.686626801 709.464515395 c 0
 189.603599348 589.373924857 143.021341009 493.997446542 89.4261694121 422.901810751 c 2
 59.327980163 382.975641339 l 1
 19.4018107509 413.073830588 l 1
 -20.5243586612 443.172019837 l 1
 9.5738305879 483.098189249 l 2
 53.9786589915 542.002553458 97.3964006524 628.626075143 137.313373199 742.535484605 c 0
 176.994190168 855.770986689 197.714145435 958.824201272 200.522941043 1051.51445633 c 0
 201.309700397 1077.47751501 223.478829853 1100 250.5 1100 c 2
 750 1100 l 2
 771.459808665 1100 800 1080.26507571 800 1050 c 2
 800 450 l 1
 800 400 l 1
 750 400 l 1
EndSplineSet
Substitution2: "Single Substitution lookup 82 subtable" fy.cvc.3
Substitution2: "Single Substitution lookup 71 subtable" fy.cvc.1
Substitution2: "Single Substitution lookup 64 subtable" fy.ccv.2
Substitution2: "Single Substitution lookup 60 subtable" fy.cvc.3
Substitution2: "Single Substitution lookup 56 subtable" fy.cvc.1
Substitution2: "Single Substitution lookup 54 subtable" fy.ccv.1
Substitution2: "Single Substitution lookup 27 subtable" fy.ccv.2
Substitution2: "Single Substitution lookup 14 subtable" fy.ccv.2
EndChar

StartChar: ky
Encoding: 21 60277 21
Width: 900
VWidth: 3741
Flags: HW
AnchorPoint: "Above" 0 0 basechar 0
LayerCount: 2
Back
SplineSet
157 450 m 1
 750 750 l 1
 150 1050 l 1025
EndSplineSet
Fore
SplineSet
112.384468404 427.428904758 m 1
 89.813373162 472.044436353 l 1
 134.428904758 494.615531596 l 1
 638.720793671 749.737903727 l 1
 127.639320225 1005.27864045 l 1
 82.917960675 1027.63932023 l 1
 105.27864045 1072.36067977 l 1
 127.639320225 1117.08203932 l 1
 172.360679775 1094.72135955 l 1
 772.360679775 794.72135955 l 2
 780.590729506 790.606334685 787.838410951 783.998623371 792.707141512 776.001924234 c 0
 807.653467617 751.453169369 798.216823557 718.35869858 772.571095242 705.384468404 c 2
 179.571095242 405.384468404 l 1
 134.955563647 382.813373162 l 1
 112.384468404 427.428904758 l 1
EndSplineSet
Substitution2: "Single Substitution lookup 82 subtable" ky.cvc.3
Substitution2: "Single Substitution lookup 71 subtable" ky.cvc.1
Substitution2: "Single Substitution lookup 64 subtable" ky.ccv.2
Substitution2: "Single Substitution lookup 60 subtable" ky.cvc.3
Substitution2: "Single Substitution lookup 56 subtable" ky.cvc.1
Substitution2: "Single Substitution lookup 54 subtable" ky.ccv.1
Substitution2: "Single Substitution lookup 29 subtable" ky.ccv.2
Substitution2: "Single Substitution lookup 16 subtable" ky.ccv.2
EndChar

StartChar: cy
Encoding: 22 60278 22
Width: 900
VWidth: 3741
Flags: HW
HStem: 399 100<100 269.34 627.1 798.5> 699 100<100 372.178 524.302 798.5>
VStem: 398.5 100<800.85 1099>
AnchorPoint: "Above" 0 0 basechar 0
LayerCount: 2
Back
SplineSet
748.5 749 m 5
 150 749 l 1029
448.5 944 m 5
 448.5 1049 l 1029
748.5 449 m 4
 547.5 449 447.5 614 448.5 944 c 5
 449.5 781 424.75 657.75 374.25 574.25 c 4
 323.75 490.75 249 449 150 449 c 1028
EndSplineSet
Fore
SplineSet
798.5 449 m 1
 798.5 399 l 1
 748.5 399 l 2
 607.183956062 399 502.155937091 475.425150931 448.238774746 611.429031923 c 1
 439.163696052 588.941456491 428.701027551 567.665760652 417.033960946 548.374670326 c 0
 358.140978711 450.997165046 264.63547983 399 150 399 c 2
 100 399 l 1
 100 449 l 1
 100 499 l 1
 150 499 l 2
 233.36452017 499 289.359021289 530.502834954 331.466039054 600.125329674 c 0
 347.678569724 626.932187317 361.442238795 659.823316438 372.178314225 699 c 1
 150 699 l 1
 100 699 l 1
 100 749 l 1
 100 799 l 1
 150 799 l 1
 391.124699325 799 l 1
 395.705050008 837.325159393 398.201085111 879.571094082 398.5 925.502126944 c 2
 398.5 934.191286751 l 2
 398.490161059 937.474749981 398.5 940.77303953 398.5 944.075177856 c 2
 398.5 1049 l 1
 398.5 1099 l 1
 448.5 1099 l 1
 498.5 1099 l 1
 498.5 1049 l 1
 498.5 944.15201584 l 2
 498.528467513 939.429043003 498.535254001 934.455927498 498.521514832 929.655338396 c 0
 498.839014565 882.099275237 501.382541149 838.407625835 506.033254227 799 c 1
 748.5 799 l 1
 798.5 799 l 1
 798.5 749 l 1
 798.5 699 l 1
 748.5 699 l 1
 524.302295111 699 l 1
 561.643318786 555.191341158 636.008393503 499 748.5 499 c 2
 798.5 499 l 1
 798.5 449 l 1
EndSplineSet
Substitution2: "Single Substitution lookup 82 subtable" cy.cvc.3
Substitution2: "Single Substitution lookup 71 subtable" cy.cvc.1
Substitution2: "Single Substitution lookup 64 subtable" cy.ccv.2
Substitution2: "Single Substitution lookup 60 subtable" cy.cvc.3
Substitution2: "Single Substitution lookup 56 subtable" cy.cvc.1
Substitution2: "Single Substitution lookup 54 subtable" cy.ccv.1
Substitution2: "Single Substitution lookup 39 subtable" cy.ccv.2
EndChar

StartChar: yhy
Encoding: 23 60279 23
Width: 900
VWidth: 3741
Flags: HW
VStem: 100 100<569.853 1100> 700 100<400 929.147>
AnchorPoint: "Above" 0 0 basechar 0
LayerCount: 2
Back
SplineSet
150 1050 m 1
 150 449 l 1
 750 1050 l 1
 750 450 l 1025
EndSplineSet
Fore
SplineSet
150 1100 m 1
 200 1100 l 1
 200 1050 l 1
 200 569.852961549 l 1
 714.615234956 1085.32588856 l 2
 734.921126384 1105.66562314 769.309285636 1104.34321961 787.993181761 1082.50412496 c 0
 796.160788941 1072.95723255 800 1055.77535523 800 1050 c 2
 800 450 l 1
 800 400 l 1
 750 400 l 1
 700 400 l 1
 700 450 l 1
 700 929.147038451 l 1
 185.384765044 413.674111437 l 2
 178.934909652 407.213506286 166.036600877 400.107473358 153.922854272 399.154125403 c 0
 125.270640305 396.899205394 100 420.259192262 100 449 c 2
 100 1050 l 1
 100 1100 l 1
 150 1100 l 1
EndSplineSet
Substitution2: "Single Substitution lookup 82 subtable" yhy.cvc.3
Substitution2: "Single Substitution lookup 71 subtable" yhy.cvc.1
Substitution2: "Single Substitution lookup 64 subtable" yhy.ccv.2
Substitution2: "Single Substitution lookup 60 subtable" yhy.cvc.3
Substitution2: "Single Substitution lookup 56 subtable" yhy.cvc.1
Substitution2: "Single Substitution lookup 54 subtable" yhy.ccv.1
EndChar

StartChar: uy
Encoding: 24 60280 24
Width: 900
VWidth: 3741
Flags: HW
HStem: 1000 100<100 700>
VStem: 700 100<400 1000>
AnchorPoint: "Above" 0 0 basechar 0
LayerCount: 2
Back
SplineSet
750 450 m 1
 750 1050 l 1
 150 1050 l 1025
EndSplineSet
Fore
SplineSet
750 400 m 1
 700 400 l 1
 700 450 l 1
 700 1000 l 1
 150 1000 l 1
 100 1000 l 1
 100 1050 l 1
 100 1100 l 1
 150 1100 l 1
 750 1100 l 2
 771.459808665 1100 800 1080.26507571 800 1050 c 2
 800 450 l 1
 800 400 l 1
 750 400 l 1
EndSplineSet
Substitution2: "Single Substitution lookup 82 subtable" uy.cvc.3
Substitution2: "Single Substitution lookup 71 subtable" uy.cvc.1
Substitution2: "Single Substitution lookup 64 subtable" uy.ccv.2
Substitution2: "Single Substitution lookup 60 subtable" uy.cvc.3
Substitution2: "Single Substitution lookup 56 subtable" uy.cvc.1
Substitution2: "Single Substitution lookup 54 subtable" uy.ccv.1
EndChar

StartChar: ly
Encoding: 25 60281 25
Width: 900
VWidth: 3741
Flags: HW
HStem: 400 99.9999<200 799.917> 700 100<200 700> 1000 100<100 700>
VStem: 100 100<499.083 700> 700 100<800 1000>
CounterMasks: 1 e0
AnchorPoint: "Above" 0 0 basechar 0
LayerCount: 2
Back
SplineSet
150 1050 m 1
 750 1050 l 1
 750 750 l 1
 150 750 l 1
 150 449 l 1
 750 450 l 1025
EndSplineSet
Fore
SplineSet
100 1050 m 1
 100 1100 l 1
 150 1100 l 1
 750 1100 l 2
 780.265075711 1100 800 1071.45980867 800 1050 c 2
 800 750 l 2
 800 719.734924289 771.459808665 700 750 700 c 2
 200 700 l 1
 200 499.083402778 l 1
 749.916666782 499.999930556 l 1
 799.916597338 500.083263773 l 1
 799.999930556 450.083333218 l 1
 800.083263773 400.083402662 l 1
 750.083333218 400.000069444 l 1
 150.083333218 399.000069444 l 2
 128.469380553 398.96404619 100 418.761867305 100 449 c 2
 100 750 l 2
 100 771.459808665 119.734924289 800 150 800 c 2
 700 800 l 1
 700 1000 l 1
 150 1000 l 1
 100 1000 l 1
 100 1050 l 1
EndSplineSet
Substitution2: "Single Substitution lookup 82 subtable" ly.cvc.3
Substitution2: "Single Substitution lookup 71 subtable" ly.cvc.1
Substitution2: "Single Substitution lookup 64 subtable" ly.ccv.2
Substitution2: "Single Substitution lookup 60 subtable" ly.cvc.3
Substitution2: "Single Substitution lookup 56 subtable" ly.cvc.1
Substitution2: "Single Substitution lookup 54 subtable" ly.ccv.1
Substitution2: "Single Substitution lookup 51 subtable" ly.ccv.2
Substitution2: "Single Substitution lookup 49 subtable" ly.ccv.2
Substitution2: "Single Substitution lookup 47 subtable" ly.ccv.2
Substitution2: "Single Substitution lookup 42 subtable" ly.ccv.2
Substitution2: "Single Substitution lookup 32 subtable" ly.ccv.2
Substitution2: "Single Substitution lookup 19 subtable" ly.ccv.2
Substitution2: "Single Substitution lookup 11 subtable" ly.ccv.2
Substitution2: "Single Substitution lookup 9 subtable" ly.ccv.2
Substitution2: "Single Substitution lookup 7 subtable" ly.ccv.2
Substitution2: "Single Substitution lookup 5 subtable" ly.ccv.2
EndChar

StartChar: denpabu
Encoding: 31 60287 31
Width: 900
VWidth: 445
Flags: HW
HStem: 373 100<323.315 576.685> 1027 100<323.315 576.685>
VStem: 76 100<621.958 878.042> 724 100<621.958 878.042>
AnchorPoint: "Above" 0 0 basechar 0
LayerCount: 2
Back
SplineSet
126 750 m 4
 126 931 271 1077 450 1077 c 4
 629 1077 774 931 774 750 c 4
 774 569 629 423 450 423 c 4
 271 423 126 569 126 750 c 4
EndSplineSet
Fore
SplineSet
176 750 m 0
 176 596.21610437 298.947486455 473 450 473 c 0
 601.052285433 473 724 596.215952847 724 750 c 0
 724 903.78389563 601.052513545 1027 450 1027 c 0
 298.947714567 1027 176 903.784047153 176 750 c 0
76 750 m 0
 76 958.215952847 243.052285433 1127 450 1127 c 0
 656.947486455 1127 824 958.21610437 824 750 c 0
 824 541.784047153 656.947714567 373 450 373 c 0
 243.052513545 373 76 541.78389563 76 750 c 0
EndSplineSet
Substitution2: "Single Substitution lookup 77 subtable" denpabu.cvc.1
Substitution2: "Single Substitution lookup 75 subtable" denpabu.cvc.3
Substitution2: "Single Substitution lookup 66 subtable" denpabu.ccv.1
EndChar

StartChar: ebu.cv
Encoding: 42 -1 32
Width: 900
VWidth: 345
Flags: W
HStem: -200 21G<100 200> 0 100<200 800>
VStem: 100 100<-200 0 100 300>
AnchorPoint: "Above" 0 0 mark 0
LayerCount: 2
Back
SplineSet
150 250 m 1
 150 -150 l 1025
750 50 m 25
 150 50 l 1025
EndSplineSet
Fore
SplineSet
800 50 m 1
 800 0 l 1
 750 0 l 1
 200 0 l 1
 200 -150 l 1
 200 -200 l 1
 150 -200 l 1
 100 -200 l 1
 100 -150 l 1
 100 0 l 1
 100 50 l 1
 100 100 l 1
 100 250 l 1
 100 300 l 1
 150 300 l 1
 200 300 l 1
 200 250 l 1
 200 100 l 1
 750 100 l 1
 800 100 l 1
 800 50 l 1
EndSplineSet
Substitution2: "Single Substitution lookup 69 subtable" ebu.ccv
Substitution2: "Single Substitution lookup 73 subtable" ebu.cvc
EndChar

StartChar: obu.cv
Encoding: 43 -1 33
Width: 900
VWidth: 345
Flags: W
HStem: -200 21G<700 800> 0 100<100 700>
VStem: 700 100<-200 0 100 300>
AnchorPoint: "Above" 0 0 mark 0
LayerCount: 2
Back
SplineSet
150 50 m 29
 750 50 l 1053
750 250 m 5
 750 -150 l 1029
EndSplineSet
Fore
SplineSet
750 300 m 1
 800 300 l 1
 800 250 l 1
 800 100 l 1
 800 50 l 1
 800 0 l 1
 800 -150 l 1
 800 -200 l 1
 750 -200 l 1
 700 -200 l 1
 700 -150 l 1
 700 0 l 1
 150 0 l 1
 100 0 l 1
 100 50 l 1
 100 100 l 1
 150 100 l 1
 700 100 l 1
 700 250 l 1
 700 300 l 1
 750 300 l 1
EndSplineSet
Substitution2: "Single Substitution lookup 73 subtable" obu.cvc
Substitution2: "Single Substitution lookup 69 subtable" obu.ccv
EndChar

StartChar: ibu.cv
Encoding: 44 -1 34
Width: 900
VWidth: 345
Flags: HW
HStem: -200 21G<100 200> 200 100<200 800>
VStem: 100 100<-200 200>
AnchorPoint: "Above" 0 0 mark 0
LayerCount: 2
Back
SplineSet
750 250 m 29
 150 250 l 5
 150 -150 l 1029
EndSplineSet
Fore
SplineSet
800 250 m 1
 800 200 l 1
 750 200 l 1
 200 200 l 1
 200 -50 l 5
 200 -100 l 5
 150 -100 l 5
 100 -100 l 5
 100 -50 l 5
 100 250 l 2
 100 271.459808665 119.734924289 300 150 300 c 2
 750 300 l 1
 800 300 l 1
 800 250 l 1
EndSplineSet
Substitution2: "Single Substitution lookup 73 subtable" ibu.cvc
Substitution2: "Single Substitution lookup 69 subtable" ibu.ccv
EndChar

StartChar: ny.cvc.1
Encoding: 32 -1 35
Width: 1300
VWidth: 345
Flags: W
HStem: 600 100<199.987 499.987> 900 100<199.994 499.991 599.994 600> 1200 100<199.999 499.999>
VStem: 99.9854 100.001<700 900 1000 1200> 499.987 99.9988<700 900 1000 1200>
CounterMasks: 1 e0
AnchorPoint: "Above" 0 0 basechar 0
LayerCount: 2
Back
SplineSet
150 1250 m 1
 550 1250 l 1
 549.985351562 650 l 1
 149.985351562 650 l 1
 150 1250 l 1
150 950 m 1
 550 950 l 1025
EndSplineSet
Fore
SplineSet
150 1300 m 2
 550 1300 l 2
 580.264682733 1300 600.000523961 1271.46084631 599.999999985 1249.9987793 c 0
 599.999999985 1166.66585286 599.993896499 1083.33292643 599.993896499 1000 c 1
 600 1000 l 1
 600 950 l 1
 600 900 l 1
 599.991455093 900 l 1
 599.991455093 816.666259766 599.985351547 733.332519531 599.985351547 649.998779297 c 0
 599.984658099 621.595155168 575.032284827 600 549.985351562 600 c 2
 149.985351562 600 l 2
 119.720668829 600 99.9848276006 628.539153688 99.9853515769 650.001220703 c 2
 100.000000015 1250.0012207 l 2
 100.000693463 1278.40484483 124.953066735 1300 150 1300 c 2
499.993896469 1000 m 1
 499.993896469 1066.66666667 499.998779282 1133.33333333 499.998779282 1200 c 1
 199.998779312 1200 l 1
 199.998779312 1133.33333333 199.993896499 1066.66666667 199.993896499 1000 c 1
 499.993896469 1000 l 1
499.991455063 900 m 1
 199.991455093 900 l 1
 199.991455093 833.333333333 199.98657228 766.666666667 199.98657228 700 c 1
 499.98657225 700 l 1
 499.98657225 766.666666667 499.991455063 833.333333333 499.991455063 900 c 1
EndSplineSet
EndChar

StartChar: ebu.ccv
Encoding: 106 -1 38
Width: 1300
VWidth: 345
Flags: W
HStem: -200 21G<300 400> 100 100<400 1000> 480 20G<300 400>
VStem: 300 100<-200 100 200 500>
AnchorPoint: "Above" 0 0 mark 0
LayerCount: 2
Back
SplineSet
350 450 m 25
 350 -150 l 1049
350 150 m 25
 950 150 l 1049
EndSplineSet
Fore
SplineSet
350 500 m 1
 400 500 l 1
 400 450 l 1
 400 200 l 1
 950 200 l 1
 1000 200 l 1
 1000 150 l 1
 1000 100 l 1
 950 100 l 1
 400 100 l 1
 400 -150 l 1
 400 -200 l 1
 350 -200 l 1
 300 -200 l 1
 300 -150 l 1
 300 100 l 1
 300 150 l 1
 300 200 l 1
 300 450 l 1
 300 500 l 1
 350 500 l 1
EndSplineSet
Substitution2: "Single Substitution lookup 69 subtable" ebu.ccv
Substitution2: "Single Substitution lookup 73 subtable" ebu.cvc
EndChar

StartChar: dy.cvc.1
Encoding: 33 -1 40
Width: 1300
VWidth: 345
Flags: W
HStem: 600 100<200 600> 900 100<200 400> 1200 100<200 600>
VStem: 100 100<700 900 1000 1200>
CounterMasks: 1 e0
AnchorPoint: "Above" 0 0 basechar 0
LayerCount: 2
Back
SplineSet
350 950 m 25
 150 950 l 1049
550 1250 m 25
 150 1250 l 25
 150 650 l 25
 550 650 l 1049
EndSplineSet
Fore
SplineSet
600 1250 m 1
 600 1200 l 1
 550 1200 l 1
 200 1200 l 1
 200 1000 l 1
 350 1000 l 1
 400 1000 l 1
 400 950 l 1
 400 900 l 1
 350 900 l 1
 200 900 l 1
 200 700 l 1
 550 700 l 1
 600 700 l 1
 600 650 l 1
 600 600 l 1
 550 600 l 1
 150 600 l 2
 128.540191335 600 100 619.734924289 100 650 c 2
 100 900 l 1
 100 950 l 1
 100 1000 l 1
 100 1250 l 2
 100 1271.45980867 119.734924289 1300 150 1300 c 2
 550 1300 l 1
 600 1300 l 1
 600 1250 l 1
EndSplineSet
EndChar

StartChar: ty.cvc.1
Encoding: 34 -1 41
Width: 1300
VWidth: 345
Flags: W
HStem: 600 100<100 500> 900 100<300 500> 1200 100<100 500>
VStem: 500 100<700 900 1000 1200>
CounterMasks: 1 e0
AnchorPoint: "Above" 0 0 basechar 0
LayerCount: 2
Back
SplineSet
350 950 m 25
 550 950 l 1049
150 1250 m 25
 550 1250 l 25
 550 650 l 25
 150 650 l 1049
EndSplineSet
Fore
SplineSet
100 1250 m 1
 100 1300 l 1
 150 1300 l 1
 550 1300 l 2
 580.265075711 1300 600 1271.45980867 600 1250 c 2
 600 1000 l 1
 600 950 l 1
 600 900 l 1
 600 650 l 2
 600 619.734924289 571.459808665 600 550 600 c 2
 150 600 l 1
 100 600 l 1
 100 650 l 1
 100 700 l 1
 150 700 l 1
 500 700 l 1
 500 900 l 1
 350 900 l 1
 300 900 l 1
 300 950 l 1
 300 1000 l 1
 350 1000 l 1
 500 1000 l 1
 500 1200 l 1
 150 1200 l 1
 100 1200 l 1
 100 1250 l 1
EndSplineSet
EndChar

StartChar: zy.cvc.1
Encoding: 35 -1 42
Width: 1300
VWidth: 345
Flags: W
HStem: 600 100<200 500> 900.876 100<200 500> 1280 20G<100 200 500 600>
VStem: 100 100<700 900.876 1000.88 1300> 500 100<700 900.102 1000.1 1300>
AnchorPoint: "Above" 0 0 basechar 0
LayerCount: 2
Back
SplineSet
539.5 950 m 25
 152 951 l 1025
150 1250 m 1
 150 650 l 1
 550 650 l 1
 550 1250 l 1049
EndSplineSet
Fore
SplineSet
150 1300 m 1
 200 1300 l 1
 200 1250 l 1
 200 1000.87629553 l 1
 500 1000.10210198 l 1
 500 1250 l 1
 500 1300 l 1
 550 1300 l 1
 600 1300 l 1
 600 1250 l 1
 600 650 l 2
 600 628.540191335 580.265075711 600 550 600 c 2
 150 600 l 2
 128.540191335 600 100 619.734924289 100 650 c 2
 100 1250 l 1
 100 1300 l 1
 150 1300 l 1
200 900.875962539 m 1
 200 700 l 1
 500 700 l 1
 500 900.101768991 l 1
 200 900.875962539 l 1
EndSplineSet
EndChar

StartChar: sy.cvc.1
Encoding: 36 -1 43
Width: 1300
VWidth: 345
Flags: W
HStem: 600 21G<500 600> 900 100<263.762 500> 1200 100<298.01 500>
VStem: 500 100<600 900 1000 1200>
AnchorPoint: "Above" 0 0 basechar 0
LayerCount: 2
Back
SplineSet
222.5 950 m 1
 550 950 l 1025
550 650 m 1
 550 1250 l 1
 254 1250 l 1
 251 1151 229 1043 188 926 c 128
 147 809 102 718 53 653 c 1024
EndSplineSet
Fore
SplineSet
550 600 m 1
 500 600 l 1
 500 650 l 1
 500 900 l 1
 231.842413506 900 l 1
 190.637854201 784.352307473 145.105675454 692.119522848 92.9261694121 622.901810751 c 2
 62.827980163 582.975641339 l 1
 22.9018107509 613.073830588 l 1
 -17.0243586612 643.172019837 l 1
 13.0738305879 683.098189249 l 2
 57.4786589915 742.002553458 100.896400652 828.626075143 140.813373199 942.535484605 c 0
 180.494190168 1055.77098669 201.214145435 1158.82420127 204.022941043 1251.51445633 c 0
 204.809700397 1277.47751501 226.978829853 1300 254 1300 c 2
 550 1300 l 2
 571.459808665 1300 600 1280.26507571 600 1250 c 2
 600 1000 l 1
 600 950 l 1
 600 900 l 1
 600 650 l 1
 600 600 l 1
 550 600 l 1
500 1000 m 1
 500 1200 l 1
 301.135781956 1200 l 1
 295.543269362 1135.47759984 283.068674733 1069.156102 263.762046191 1000 c 1
 500 1000 l 1
EndSplineSet
EndChar

StartChar: gy.cvc.1
Encoding: 37 -1 44
Width: 1300
VWidth: 345
Flags: W
AnchorPoint: "Above" 0 0 basechar 0
LayerCount: 2
Back
SplineSet
550 1250 m 25
 150 950 l 25
 550 650 l 1049
EndSplineSet
Fore
SplineSet
590 1280 m 1
 620 1240 l 1
 580 1210 l 1
 233.333333333 950 l 1
 580 690 l 1
 620 660 l 1
 590 620 l 1
 560 580 l 1
 520 610 l 1
 120 910 l 2
 119.667257824 910.249556632 114.60529664 914.53755963 112.477012886 916.954191824 c 0
 93.4817484986 938.523010993 97.0073538093 972.755515357 120 990 c 2
 520 1290 l 1
 560 1320 l 1
 590 1280 l 1
EndSplineSet
EndChar

StartChar: jy.cvc.1
Encoding: 38 -1 45
Width: 1300
VWidth: 345
Flags: HW
HStem: 600 21G<300 400> 901 100<100 295.565 399.574 600> 1200 100<100 250.732 445.115 600>
VStem: 300 100<600 901 1001 1142.29>
AnchorPoint: "Above" 0 0 basechar 0
LayerCount: 2
Back
SplineSet
150 951 m 5
 550 951 l 1029
350 650 m 1029
150 1250 m 4
 351 1250 351 980 350 650 c 5
 348.3671875 916.206054688 314.138671875 1250 550 1250 c 1028
EndSplineSet
Fore
SplineSet
100 1250 m 1
 100 1300 l 1
 150 1300 l 2
 244.298994258 1300 310.299761302 1247.29612097 345.876324653 1171.15568128 c 1
 382.060331339 1246.41869968 450.430199353 1300 550 1300 c 2
 600 1300 l 1
 600 1250 l 1
 600 1200 l 1
 550 1200 l 2
 461.209581942 1200 424.134889331 1142.99945832 406.767032463 1019.61929768 c 0
 405.909595466 1013.52811929 405.123191434 1007.31813439 404.403067858 1001 c 1
 550 1001 l 1
 600 1001 l 1
 600 951 l 1
 600 901 l 1
 550 901 l 1
 398.017178326 901 l 1
 397.839062438 894.039255693 397.701853474 887.025412719 397.601120443 879.968407139 c 0
 400.435734366 808.080565493 400.243696322 730.352945386 400 649.924246781 c 2
 400 600 l 1
 300 600 l 1
 300 649.846065194 l 2
 299.553527161 722.074178293 296.617395596 801.452898448 297.573940256 878.634113951 c 0
 297.26549322 886.182845321 296.921229061 893.640087168 296.538300661 901 c 1
 150 901 l 1
 100 901 l 1
 100 951 l 1
 100 1001 l 1
 150 1001 l 1
 287.854497447 1001 l 1
 286.865631487 1008.49618323 285.801725059 1015.81270882 284.657918483 1022.93960948 c 0
 263.958741653 1151.91331892 226.340361407 1200 150 1200 c 2
 100 1200 l 1
 100 1250 l 1
EndSplineSet
EndChar

StartChar: xy.cvc.1
Encoding: 39 -1 46
Width: 1300
VWidth: 345
Flags: HWO
HStem: 585.747 21G<109.372 163.045 532.634 586.929> 1280 20G<300 400>
VStem: 300 100<780.215 1300>
AnchorPoint: "Above" 0 0 basechar 0
LayerCount: 2
Back
SplineSet
350 1250 m 1029
550 650 m 4
 363 788 350 1010.81640625 350 1250 c 5
 350 1006.84082031 338 790 150 650 c 1028
EndSplineSet
Fore
SplineSet
300 1300 m 1
 400 1300 l 1
 400 1250 l 2
 400 1009.03962906 415.597655195 811.325519331 579.689298824 690.231151305 c 2
 619.920450129 660.541852481 l 1
 560.541852481 580.079549871 l 1
 520.310701176 609.768848695 l 2
 435.702913322 672.206681443 382.342192322 752.104169019 350.272500826 839.01125663 c 1
 318.051842907 751.767507894 264.595446943 672.996246345 179.8633073 609.897844483 c 2
 139.761151783 580.034537183 l 1
 80.0345371831 660.238848217 l 1
 120.1366927 690.102155517 l 2
 285.75544992 813.435272595 300 1005.01989877 300 1250 c 2
 300 1300 l 1
EndSplineSet
EndChar

StartChar: iy.cvc.1
Encoding: 40 -1 47
Width: 1300
VWidth: 345
Flags: W
HStem: 600 21G<100 200> 1200 100<200 600>
VStem: 100 100<600 1200>
AnchorPoint: "Above" 0 0 basechar 0
LayerCount: 2
Back
SplineSet
150 650 m 25
 150 1250 l 1
 550 1250 l 1049
EndSplineSet
Fore
SplineSet
150 600 m 1
 100 600 l 1
 100 650 l 1
 100 1250 l 2
 100 1280.26507571 128.540191335 1300 150 1300 c 2
 550 1300 l 1
 600 1300 l 1
 600 1250 l 1
 600 1200 l 1
 550 1200 l 1
 200 1200 l 1
 200 650 l 1
 200 600 l 1
 150 600 l 1
EndSplineSet
EndChar

StartChar: ry.cvc.1
Encoding: 41 -1 48
Width: 1300
VWidth: 345
Flags: W
AnchorPoint: "Above" 0 0 basechar 0
LayerCount: 2
Back
SplineSet
550 1250 m 25
 150 650 l 1049
150 1250 m 25
 550 650 l 1049
EndSplineSet
Fore
SplineSet
122.264990189 1291.60251472 m 1
 163.867504906 1319.33752453 l 1
 191.602514717 1277.73500981 l 1
 350 1040.13878189 l 1
 508.397485283 1277.73500981 l 1
 536.132495094 1319.33752453 l 1
 577.735009811 1291.60251472 l 1
 619.337524528 1263.86750491 l 1
 591.602514717 1222.26499019 l 1
 410.092521258 950 l 1
 591.602514717 677.735009811 l 1
 619.337524528 636.132495094 l 1
 577.735009811 608.397485283 l 1
 536.132495094 580.662475472 l 1
 508.397485283 622.264990189 l 1
 350 859.861218113 l 1
 191.602514717 622.264990189 l 1
 163.867504906 580.662475472 l 1
 122.264990189 608.397485283 l 1
 80.6624754718 636.132495094 l 1
 108.397485283 677.735009811 l 1
 289.907478742 950 l 1
 108.397485283 1222.26499019 l 1
 80.6624754718 1263.86750491 l 1
 122.264990189 1291.60251472 l 1
EndSplineSet
EndChar

StartChar: my.cvc.1
Encoding: 48 -1 49
Width: 1300
VWidth: 345
Flags: W
HStem: 600 100<200 500> 1200 100<200 500>
VStem: 100 100<700 1200> 500 100<700 1200>
AnchorPoint: "Above" 0 0 basechar 0
LayerCount: 2
Back
SplineSet
150 1250 m 25
 550 1250 l 25
 550 650 l 25
 150 650 l 25
 150 1250 l 25
EndSplineSet
Fore
SplineSet
200 1200 m 1
 200 700 l 1
 500 700 l 1
 500 1200 l 1
 200 1200 l 1
150 1300 m 2
 550 1300 l 2
 580.265075711 1300 600 1271.45980867 600 1250 c 2
 600 650 l 2
 600 619.734924289 571.459808665 600 550 600 c 2
 150 600 l 2
 119.734924289 600 100 628.540191335 100 650 c 2
 100 1250 l 2
 100 1280.26507571 128.540191335 1300 150 1300 c 2
EndSplineSet
EndChar

StartChar: by.cvc.1
Encoding: 49 -1 50
Width: 1300
VWidth: 345
Flags: W
HStem: 600 100<200 600> 1200 100<200 600>
VStem: 100 100<700 1200>
AnchorPoint: "Above" 0 0 basechar 0
LayerCount: 2
Back
SplineSet
550 1250 m 25
 150 1250 l 25
 150 650 l 25
 550 650 l 1053
EndSplineSet
Fore
SplineSet
600 1250 m 1
 600 1200 l 1
 550 1200 l 1
 200 1200 l 1
 200 700 l 1
 550 700 l 1
 600 700 l 1
 600 650 l 1
 600 600 l 1
 550 600 l 1
 150 600 l 2
 128.540191335 600 100 619.734924289 100 650 c 2
 100 1250 l 2
 100 1271.45980867 119.734924289 1300 150 1300 c 2
 550 1300 l 1
 600 1300 l 1
 600 1250 l 1
EndSplineSet
EndChar

StartChar: py.cvc.1
Encoding: 50 -1 51
Width: 1300
VWidth: 345
Flags: W
HStem: 600 100<100 500> 1200 100<100 500>
VStem: 500 100<700 1200>
AnchorPoint: "Above" 0 0 basechar 0
LayerCount: 2
Back
SplineSet
150 1250 m 25
 550 1250 l 25
 550 650 l 25
 150 650 l 1049
EndSplineSet
Fore
SplineSet
100 1250 m 1
 100 1300 l 1
 150 1300 l 1
 550 1300 l 2
 580.265075711 1300 600 1271.45980867 600 1250 c 2
 600 650 l 2
 600 619.734924289 571.459808665 600 550 600 c 2
 150 600 l 1
 100 600 l 1
 100 650 l 1
 100 700 l 1
 150 700 l 1
 500 700 l 1
 500 1200 l 1
 150 1200 l 1
 100 1200 l 1
 100 1250 l 1
EndSplineSet
EndChar

StartChar: vy.cvc.1
Encoding: 51 -1 52
Width: 1300
VWidth: 345
Flags: W
HStem: 600 100<200 500> 1280 20G<100 200 500 600>
VStem: 100 100<700 1300> 500 100<700 1300>
AnchorPoint: "Above" 0 0 basechar 0
LayerCount: 2
Back
SplineSet
150 1250 m 25
 150 650 l 25
 550 650 l 25
 550 1250 l 1049
EndSplineSet
Fore
SplineSet
150 1300 m 1
 200 1300 l 1
 200 1250 l 1
 200 700 l 1
 500 700 l 1
 500 1250 l 1
 500 1300 l 1
 550 1300 l 1
 600 1300 l 1
 600 1250 l 1
 600 650 l 2
 600 628.540191335 580.265075711 600 550 600 c 2
 150 600 l 2
 128.540191335 600 100 619.734924289 100 650 c 2
 100 1250 l 1
 100 1300 l 1
 150 1300 l 1
EndSplineSet
EndChar

StartChar: fy.cvc.1
Encoding: 52 -1 53
Width: 1300
VWidth: 345
Flags: W
HStem: 600 21G<500 600> 1200 100<300.011 500>
VStem: 500 100<600 1200>
AnchorPoint: "Above" 0 0 basechar 0
LayerCount: 2
Back
SplineSet
550 650 m 1
 550 1250 l 1
 256 1250 l 1
 253 1151 231 1043 190 926 c 0
 149 809 104 718 55 653 c 1024
EndSplineSet
Fore
SplineSet
550 600 m 1
 500 600 l 1
 500 650 l 1
 500 1200 l 1
 303.135781956 1200 l 1
 295.147074068 1107.83201675 273.1153956 1011.99295319 237.186626801 909.464515395 c 0
 195.103599348 789.373924857 148.521341009 693.997446542 94.9261694121 622.901810751 c 2
 64.827980163 582.975641339 l 1
 24.9018107509 613.073830588 l 1
 -15.0243586612 643.172019837 l 1
 15.0738305879 683.098189249 l 2
 59.4786589915 742.002553458 102.896400652 828.626075143 142.813373199 942.535484605 c 0
 182.494190168 1055.77098669 203.214145435 1158.82420127 206.022941043 1251.51445633 c 0
 206.809700397 1277.47751501 228.978829853 1300 256 1300 c 2
 550 1300 l 2
 571.459808665 1300 600 1280.26507571 600 1250 c 2
 600 650 l 1
 600 600 l 1
 550 600 l 1
EndSplineSet
EndChar

StartChar: ky.cvc.1
Encoding: 53 -1 54
Width: 1300
VWidth: 345
Flags: W
AnchorPoint: "Above" 0 0 basechar 0
LayerCount: 2
Back
SplineSet
150 1250 m 25
 550 952 l 25
 150 650 l 1049
EndSplineSet
Fore
SplineSet
109.903975326 1279.87153838 m 1
 139.775513708 1319.96756306 l 1
 179.871538382 1290.09602467 l 1
 579.871538382 992.096024674 l 2
 607.362682958 971.615121965 604.410666549 930.429734012 580.127540021 912.095973483 c 2
 180.127540021 610.095973483 l 1
 140.223513503 579.968433462 l 1
 110.095973483 619.872459979 l 1
 79.9684334619 659.776486497 l 1
 119.872459979 689.904026517 l 1
 466.666239999 951.733330432 l 1
 120.128461618 1209.90397533 l 1
 80.0324369435 1239.77551371 l 1
 109.903975326 1279.87153838 l 1
EndSplineSet
EndChar

StartChar: cy.cvc.1
Encoding: 54 -1 55
Width: 1300
VWidth: 345
Flags: W
HStem: 600 100<100 254.885 449.268 600> 900 100<100 300.41 404.362 600> 1280 20G<300 400>
VStem: 300 100<757.71 900 1000 1300>
AnchorPoint: "Above" 0 0 basechar 0
LayerCount: 2
Back
SplineSet
550 950 m 1
 150 950 l 1025
350 1145 m 1
 350 1250 l 1025
550 650 m 0
 349 650 349 815 350 1145 c 1
 351.63316761 878.793679573 385.861328125 650 150 650 c 1024
EndSplineSet
Fore
SplineSet
600 650 m 1
 600 600 l 1
 550 600 l 2
 461.831922708 600 392.455969555 631.704641101 352.821212094 697.838882708 c 1
 312.959447072 634.796231258 243.032678742 600 150 600 c 2
 100 600 l 1
 100 650 l 1
 100 700 l 1
 150 700 l 2
 250.572347491 700 278.140544327 738.743241446 293.557865166 824.76513006 c 0
 297.540971358 846.989115712 299.97410683 872.305822587 301.29908274 900 c 1
 150 900 l 1
 100 900 l 1
 100 950 l 1
 100 1000 l 1
 150 1000 l 1
 300.409913489 1000 l 1
 299.710846174 1044.72216616 299.842572002 1093.11979129 300 1145.07575397 c 2
 300 1250 l 1
 300 1300 l 1
 350 1300 l 1
 400 1300 l 1
 400 1250 l 1
 400 1145.15398413 l 2
 400.305368851 1095.77398425 401.781493427 1046.97938789 402.374167955 1000 c 1
 550 1000 l 1
 600 1000 l 1
 600 950 l 1
 600 900 l 1
 550 900 l 1
 404.361753966 900 l 1
 406.549316688 870.067618878 409.721201478 843.629362215 414.132276162 820.956055329 c 0
 432.112979739 728.533677687 458.682320166 700 550 700 c 2
 600 700 l 1
 600 650 l 1
EndSplineSet
EndChar

StartChar: yhy.cvc.1
Encoding: 55 -1 56
Width: 1300
VWidth: 345
Flags: W
HStem: 600 21G<500 600> 1280 20G<100 200>
VStem: 100 100<815.139 1300> 500 100<600 1084.86>
AnchorPoint: "Above" 0 0 basechar 0
LayerCount: 2
Back
SplineSet
150 1250 m 25
 150 650 l 25
 550 1250 l 25
 550 650 l 1049
EndSplineSet
Fore
SplineSet
150 1300 m 1
 200 1300 l 1
 200 1250 l 1
 200 815.138781887 l 1
 508.397485283 1277.73500981 l 2
 524.340016975 1301.64880735 558.324249978 1307.06786216 580.913528472 1289.2982666 c 0
 593.383832772 1279.48864545 600 1262.38831538 600 1250 c 2
 600 650 l 1
 600 600 l 1
 550 600 l 1
 500 600 l 1
 500 650 l 1
 500 1084.86121811 l 1
 191.602514717 622.264990189 l 2
 183.626206873 610.300528424 169.273091264 601.362184109 153.922854272 600.154125403 c 0
 125.270640305 597.899205394 100 621.259192262 100 650 c 2
 100 1250 l 1
 100 1300 l 1
 150 1300 l 1
EndSplineSet
EndChar

StartChar: uy.cvc.1
Encoding: 56 -1 57
Width: 1300
VWidth: 345
Flags: W
HStem: 600 21G<500 600> 1200 100<100 500>
VStem: 500 100<600 1200>
AnchorPoint: "Above" 0 0 basechar 0
LayerCount: 2
Back
SplineSet
150 1250 m 25
 550 1250 l 25
 550 650 l 1049
EndSplineSet
Fore
SplineSet
100 1250 m 1
 100 1300 l 1
 150 1300 l 1
 550 1300 l 2
 580.265075711 1300 600 1271.45980867 600 1250 c 2
 600 650 l 1
 600 600 l 1
 550 600 l 1
 500 600 l 1
 500 650 l 1
 500 1200 l 1
 150 1200 l 1
 100 1200 l 1
 100 1250 l 1
EndSplineSet
EndChar

StartChar: ly.cvc.1
Encoding: 57 -1 58
Width: 1300
VWidth: 345
Flags: W
HStem: 600 100<200 600> 899.875 100.125<200 500> 1200 100<100 500>
VStem: 100 100<700 899.875> 500 100<999.125 1200>
CounterMasks: 1 e0
AnchorPoint: "Above" 0 0 basechar 0
LayerCount: 2
Back
SplineSet
150 1250 m 25
 550 1250 l 25
 550 949 l 25
 150 950 l 25
 150 650 l 25
 550 650 l 1053
EndSplineSet
Fore
SplineSet
100 1250 m 1
 100 1300 l 1
 150 1300 l 1
 550 1300 l 2
 580.265075711 1300 600 1271.45980867 600 1250 c 2
 600 949 l 2
 600 918.775426866 571.56600497 898.945928738 549.875000391 899.000156249 c 2
 200 899.87484375 l 1
 200 700 l 1
 550 700 l 1
 600 700 l 1
 600 650 l 1
 600 600 l 1
 550 600 l 1
 150 600 l 2
 128.540191335 600 100 619.734924289 100 650 c 2
 100 950 l 2
 100 971.691072364 119.900520927 1000.07540495 150.124999609 999.999843751 c 2
 500 999.12515625 l 1
 500 1200 l 1
 150 1200 l 1
 100 1200 l 1
 100 1250 l 1
EndSplineSet
EndChar

StartChar: denpabu.cvc.1
Encoding: 63 -1 78
Width: 1300
VWidth: 345
Flags: HW
HStem: 373 100<297.315 550.685> 1027 100<297.315 550.685>
VStem: 50 100<621.958 878.042> 698 100<621.958 878.042>
AnchorPoint: "Above" 0 0 basechar 0
LayerCount: 2
Back
SplineSet
124 950 m 4
 124 1132 225 1280 350 1280 c 4
 475 1280 576 1132 576 950 c 4
 576 768 475 620 350 620 c 4
 225 620 124 768 124 950 c 4
EndSplineSet
Fore
SplineSet
174 950 m 0
 174 779.449595169 268.372490783 670 350 670 c 0
 431.627650283 670 526 779.449331349 526 950 c 0
 526 1120.55040483 431.627509217 1230 350 1230 c 0
 268.372349717 1230 174 1120.55066865 174 950 c 0
74 950 m 0
 74 1143.44933135 181.627650283 1330 350 1330 c 0
 518.372490783 1330 626 1143.44959517 626 950 c 0
 626 756.550668651 518.372349717 570 350 570 c 0
 181.627509217 570 74 756.550404831 74 950 c 0
EndSplineSet
EndChar

StartChar: ybu.cv
Encoding: 47 -1 79
Width: 900
VWidth: 345
Flags: HW
HStem: -200 21G<400 500> 0 100<100 400 500 800>
VStem: 400 100<-200 0 100 300>
AnchorPoint: "Above" 0 0 mark 0
LayerCount: 2
Back
SplineSet
150 50 m 25
 750 50 l 1049
450 250 m 1
 450 -150 l 1025
EndSplineSet
Fore
SplineSet
450 400 m 5
 500 400 l 5
 500 350 l 5
 500 200 l 5
 750 200 l 5
 800 200 l 5
 800 150 l 5
 800 100 l 5
 750 100 l 5
 500 100 l 5
 500 -50 l 5
 500 -100 l 5
 450 -100 l 5
 400 -100 l 5
 400 -50 l 5
 400 100 l 5
 150 100 l 5
 100 100 l 5
 100 150 l 5
 100 200 l 5
 150 200 l 5
 400 200 l 5
 400 350 l 5
 400 400 l 5
 450 400 l 5
EndSplineSet
Substitution2: "Single Substitution lookup 73 subtable" ybu.cvc
Substitution2: "Single Substitution lookup 69 subtable" ybu.ccv
EndChar

StartChar: eibu.cv
Encoding: 58 -1 80
Width: 900
VWidth: 345
Flags: HW
HStem: -200 21G<100 200> 5.55112e-15 100<200 800> 200 100<200 800>
VStem: 100 100<-200 0 100 200>
AnchorPoint: "Above" 0 0 mark 0
LayerCount: 2
Back
SplineSet
750 50 m 25
 150 50 l 1049
750 250 m 25
 150 250 l 1
 150 -150 l 1025
EndSplineSet
Fore
SplineSet
800 250 m 1
 800 200 l 1
 750 200 l 1
 200 200 l 1
 200 100 l 1
 750 100 l 1
 800 100 l 1
 800 50 l 1
 800 0 l 1
 750 0 l 1
 200 5.55111512313e-15 l 1
 200 -50 l 5
 200 -100 l 5
 150 -100 l 5
 100 -100 l 5
 100 -50 l 5
 100 0 l 1
 100 50 l 1
 100 100 l 1
 100 250 l 2
 100 271.459808665 119.734924289 300 150 300 c 2
 750 300 l 1
 800 300 l 1
 800 250 l 1
EndSplineSet
Substitution2: "Single Substitution lookup 73 subtable" eibu.cvc
Substitution2: "Single Substitution lookup 69 subtable" eibu.ccv
EndChar

StartChar: oibu.cv
Encoding: 59 -1 81
Width: 900
VWidth: 345
Flags: HW
HStem: -200 21G<700 800> 0 100<100 700> 200 100<100 700>
VStem: 700 100<-200 0 100 200>
AnchorPoint: "Above" 0 0 mark 0
LayerCount: 2
Back
SplineSet
150 50 m 25
 748.5 50 l 1048
150 250 m 25
 750 250 l 1
 750 -150 l 1025
EndSplineSet
Fore
SplineSet
100 250 m 1
 100 300 l 1
 150 300 l 1
 750 300 l 2
 780.265075711 300 800 271.459808665 800 250 c 2
 800 -60 l 5
 800 -110 l 5
 750 -110 l 5
 700 -110 l 5
 700 -60 l 5
 700 -4.16333634234e-15 l 1
 150 0 l 1
 100 0 l 1
 100 50 l 1
 100 100 l 1
 150 100 l 1
 700 100 l 1
 700 200 l 1
 150 200 l 1
 100 200 l 1
 100 250 l 1
EndSplineSet
Substitution2: "Single Substitution lookup 73 subtable" oibu.cvc
Substitution2: "Single Substitution lookup 69 subtable" oibu.ccv
EndChar

StartChar: aibu.cv
Encoding: 60 -1 82
Width: 900
VWidth: 345
Flags: HW
HStem: -200 21G<100 200> 0 100<200 400 500 800>
VStem: 100 100<-200 0> 400 100<100 300>
AnchorPoint: "Above" 0 0 mark 0
LayerCount: 2
Back
SplineSet
450 250 m 1
 450 50 l 1025
750 50 m 25
 150 50 l 1
 150 -150 l 1049
EndSplineSet
Fore
SplineSet
800 150 m 5
 800 100 l 5
 750 100 l 5
 500 100 l 5
 450 100 l 5
 400 100 l 5
 200 100 l 5
 200 -50 l 5
 200 -100 l 5
 150 -100 l 5
 100 -100 l 5
 100 -50 l 5
 100 150 l 6
 100 171.459960938 119.735351562 200 150 200 c 6
 400 200 l 5
 400 350 l 5
 400 400 l 5
 450 400 l 5
 500 400 l 5
 500 350 l 5
 500 200 l 5
 750 200 l 5
 800 200 l 5
 800 150 l 5
EndSplineSet
Substitution2: "Single Substitution lookup 73 subtable" aibu.cvc
Substitution2: "Single Substitution lookup 69 subtable" aibu.ccv
EndChar

StartChar: aubu.cv
Encoding: 61 -1 83
Width: 900
VWidth: 345
Flags: HW
HStem: -200 21G<700 800> 0 100<100 400 500 700>
VStem: 400 100<100 300> 700 100<-200 0>
AnchorPoint: "Above" 0 0 mark 0
LayerCount: 2
Back
SplineSet
450 250 m 1
 450 50 l 1025
150 50 m 25
 750 50 l 1
 750 -150 l 1049
EndSplineSet
Fore
SplineSet
100 150 m 1
 100 200 l 1
 150 200 l 1
 400 200 l 1
 400 350 l 1
 400 400 l 1
 450 400 l 1
 500 400 l 1
 500 350 l 1
 500 200 l 1
 750 200 l 2
 780.264648438 200 800 171.459960938 800 150 c 2
 800 -50 l 1
 800 -100 l 1
 750 -100 l 1
 700 -100 l 1
 700 -50 l 1
 700 100 l 1
 500 100 l 1
 450 100 l 1
 400 100 l 1
 150 100 l 1
 100 100 l 1
 100 150 l 1
EndSplineSet
Substitution2: "Single Substitution lookup 73 subtable" aubu.cvc
Substitution2: "Single Substitution lookup 69 subtable" aubu.ccv
EndChar

StartChar: ubu.cv
Encoding: 45 -1 84
Width: 900
VWidth: 345
Flags: HW
HStem: -200 21G<700 800> 200 100<100 700>
VStem: 700 100<-200 200>
AnchorPoint: "Above" 0 0 mark 0
LayerCount: 2
Back
SplineSet
150 250 m 1
 750 250 l 1
 750 -150 l 1025
EndSplineSet
Fore
SplineSet
100 250 m 1
 100 300 l 1
 150 300 l 1
 750 300 l 2
 780.265075711 300 800 271.459808665 800 250 c 2
 800 -50 l 5
 800 -100 l 5
 750 -100 l 5
 700 -100 l 5
 700 -50 l 5
 700 200 l 1
 150 200 l 1
 100 200 l 1
 100 250 l 1
EndSplineSet
Substitution2: "Single Substitution lookup 73 subtable" ubu.cvc
Substitution2: "Single Substitution lookup 69 subtable" ubu.ccv
EndChar

StartChar: abu.cv
Encoding: 46 -1 85
Width: 900
VWidth: 345
Flags: HW
HStem: -200 100<100 400 500 800>
VStem: 400 100<-100 300>
AnchorPoint: "Above" 0 0 mark 0
LayerCount: 2
Back
SplineSet
450 250 m 1
 450 -150 l 1025
150 -150 m 25
 750 -150 l 1049
EndSplineSet
Fore
SplineSet
100 50 m 5
 100 100 l 5
 150 100 l 5
 400 100 l 5
 400 350 l 1
 400 400 l 1
 450 400 l 1
 500 400 l 1
 500 350 l 1
 500 100 l 5
 750 100 l 5
 800 100 l 5
 800 50 l 5
 800 0 l 5
 750 0 l 5
 500 0 l 5
 450 0 l 5
 400 0 l 5
 150 0 l 5
 100 0 l 5
 100 50 l 5
EndSplineSet
Substitution2: "Single Substitution lookup 73 subtable" abu.cvc
Substitution2: "Single Substitution lookup 69 subtable" abu.ccv
EndChar

StartChar: sy.ccv.2
Encoding: 132 -1 89
Width: 1300
VWidth: 345
Flags: W
HStem: 600 21G<700 800 1100.5 1200.5> 900 100<800 1100.5> 1200 100<800 1100.5>
VStem: 700 100<600 900 1000 1200> 1100.5 100<600 900 1000 1200>
AnchorPoint: "Above" 0 0 mark 0
LayerCount: 2
Back
SplineSet
759 950 m 1
 1150.5 950 l 1025
1150.5 650 m 1
 1150.5 1250 l 1
 750 1250 l 1
 750 650 l 1049
EndSplineSet
Fore
SplineSet
1150.5 600 m 1
 1100.5 600 l 1
 1100.5 650 l 1
 1100.5 900 l 1
 800 900 l 1
 800 650 l 1
 800 600 l 1
 750 600 l 1
 700 600 l 1
 700 650 l 1
 700 1250 l 2
 700 1271.45980867 719.734924289 1300 750 1300 c 2
 1150.5 1300 l 2
 1171.95980867 1300 1200.5 1280.26507571 1200.5 1250 c 2
 1200.5 1000 l 1
 1200.5 950 l 1
 1200.5 900 l 1
 1200.5 650 l 1
 1200.5 600 l 1
 1150.5 600 l 1
1100.5 1000 m 1
 1100.5 1200 l 1
 800 1200 l 1
 800 1000 l 1
 1100.5 1000 l 1
EndSplineSet
EndChar

StartChar: vy.ccv.2
Encoding: 147 -1 97
Width: 1300
VWidth: 345
Flags: W
HStem: 600 100<800 980.989> 1280 20G<700 800>
VStem: 700 100<700 1300>
AnchorPoint: "Above" 0 0 mark 0
LayerCount: 2
Back
SplineSet
750 1250 m 25
 750 650 l 1
 1025 650 l 1
 1028 749 1050 857 1091 974 c 0
 1132 1091 1177 1182 1226 1247 c 1024
EndSplineSet
Fore
SplineSet
750 1300 m 1
 800 1300 l 1
 800 1250 l 1
 800 700 l 1
 977.864218044 700 l 1
 985.852925932 792.167983246 1007.8846044 888.007046813 1043.8133732 990.535484605 c 0
 1085.89640065 1110.62607514 1132.47865899 1206.00255346 1186.07383059 1277.09818925 c 2
 1216.17201984 1317.02435866 l 1
 1256.09818925 1286.92616941 l 1
 1296.02435866 1256.82798016 l 1
 1265.92616941 1216.90181075 l 2
 1221.52134101 1157.99744654 1178.10359935 1071.37392486 1138.1866268 957.464515395 c 0
 1098.50580983 844.229013311 1077.78585457 741.175798728 1074.97705896 648.485543668 c 0
 1074.1902996 622.522484989 1052.02117015 600 1025 600 c 2
 750 600 l 2
 728.540191335 600 700 619.734924289 700 650 c 2
 700 1250 l 1
 700 1300 l 1
 750 1300 l 1
EndSplineSet
EndChar

StartChar: eibu.ccv
Encoding: 122 -1 104
Width: 1300
VWidth: 345
Flags: W
HStem: -200 21G<300 400> 100 100<400 1000> 400 100<400 1000>
VStem: 300 100<-200 100 200 400>
AnchorPoint: "Above" 0 0 mark 0
LayerCount: 2
Back
SplineSet
350 -150 m 25
 350 450 l 25
 950 450 l 1049
350 150 m 25
 950 150 l 1049
EndSplineSet
Fore
SplineSet
350 -200 m 1
 300 -200 l 1
 300 -150 l 1
 300 100 l 1
 300 150 l 1
 300 200 l 1
 300 450 l 2
 300 480.265075711 328.540191335 500 350 500 c 2
 950 500 l 1
 1000 500 l 1
 1000 450 l 1
 1000 400 l 1
 950 400 l 1
 400 400 l 1
 400 200 l 1
 950 200 l 1
 1000 200 l 1
 1000 150 l 1
 1000 100 l 1
 950 100 l 1
 400 100 l 1
 400 -150 l 1
 400 -200 l 1
 350 -200 l 1
EndSplineSet
EndChar

StartChar: obu.ccv
Encoding: 107 -1 105
Width: 1300
VWidth: 345
Flags: W
HStem: -200 21G<900 1000> 100 100<300 900> 480 20G<900 1000>
VStem: 900 100<-200 100 200 500>
AnchorPoint: "Above" 0 0 mark 0
LayerCount: 2
Back
SplineSet
950 450 m 25
 950 -150 l 1049
350 150 m 25
 950 150 l 1049
EndSplineSet
Fore
SplineSet
300 150 m 1
 300 200 l 1
 350 200 l 1
 900 200 l 1
 900 450 l 1
 900 500 l 1
 950 500 l 1
 1000 500 l 1
 1000 450 l 1
 1000 200 l 1
 1000 150 l 1
 1000 100 l 1
 1000 -150 l 1
 1000 -200 l 1
 950 -200 l 1
 900 -200 l 1
 900 -150 l 1
 900 100 l 1
 350 100 l 1
 300 100 l 1
 300 150 l 1
EndSplineSet
Substitution2: "Single Substitution lookup 73 subtable" obu.cvc
Substitution2: "Single Substitution lookup 69 subtable" obu.ccv
EndChar

StartChar: oibu.ccv
Encoding: 123 -1 106
Width: 1300
VWidth: 345
Flags: W
HStem: -200 21G<900 1000> 100 100<300 900> 400 100<300 900>
VStem: 900 100<-200 100 200 400>
AnchorPoint: "Above" 0 0 mark 0
LayerCount: 2
Back
SplineSet
350 450 m 25
 950 450 l 25
 950 -150 l 1049
350 150 m 25
 950 150 l 1049
EndSplineSet
Fore
SplineSet
300 150 m 1
 300 200 l 1
 350 200 l 1
 900 200 l 1
 900 400 l 1
 350 400 l 1
 300 400 l 1
 300 450 l 1
 300 500 l 1
 350 500 l 1
 950 500 l 2
 980.265075711 500 1000 471.459808665 1000 450 c 2
 1000 200 l 1
 1000 150 l 1
 1000 100 l 1
 1000 -150 l 1
 1000 -200 l 1
 950 -200 l 1
 900 -200 l 1
 900 -150 l 1
 900 100 l 1
 350 100 l 1
 300 100 l 1
 300 150 l 1
EndSplineSet
EndChar

StartChar: ybu.ccv
Encoding: 111 -1 107
Width: 1300
VWidth: 345
Flags: W
HStem: -200 21G<600 700> 100 100<300 600 700 1000> 480 20G<600 700>
VStem: 600 100<-200 100 200 500>
AnchorPoint: "Above" 0 0 mark 0
LayerCount: 2
Back
SplineSet
350 150 m 25
 950 150 l 1049
650 450 m 25
 650 -150 l 1049
EndSplineSet
Fore
SplineSet
650 500 m 1
 700 500 l 1
 700 450 l 1
 700 200 l 1
 950 200 l 1
 1000 200 l 1
 1000 150 l 1
 1000 100 l 1
 950 100 l 1
 700 100 l 1
 700 -150 l 1
 700 -200 l 1
 650 -200 l 1
 600 -200 l 1
 600 -150 l 1
 600 100 l 1
 350 100 l 1
 300 100 l 1
 300 150 l 1
 300 200 l 1
 350 200 l 1
 600 200 l 1
 600 450 l 1
 600 500 l 1
 650 500 l 1
EndSplineSet
Substitution2: "Single Substitution lookup 73 subtable" ybu.cvc
Substitution2: "Single Substitution lookup 69 subtable" ybu.ccv
EndChar

StartChar: ebu.cvc
Encoding: 74 -1 108
Width: 1300
VWidth: 345
Flags: W
HStem: 600 21G<700 800> 900 100<800 1200.5> 1280 20G<700 800>
VStem: 700 100<600 900 1000 1300>
AnchorPoint: "Above" 0 0 mark 0
LayerCount: 2
Back
SplineSet
1150.5 950 m 1
 750 950 l 1049
750 1250 m 25
 750 650 l 1049
EndSplineSet
Fore
SplineSet
750 1300 m 1
 800 1300 l 1
 800 1250 l 1
 800 1000 l 1
 1150.5 1000 l 1
 1200.5 1000 l 1
 1200.5 950 l 1
 1200.5 900 l 1
 1150.5 900 l 1
 800 900 l 1
 800 650 l 1
 800 600 l 1
 750 600 l 1
 700 600 l 1
 700 650 l 1
 700 900 l 1
 700 950 l 1
 700 1000 l 1
 700 1250 l 1
 700 1300 l 1
 750 1300 l 1
EndSplineSet
EndChar

StartChar: obu.cvc
Encoding: 75 -1 109
Width: 1300
VWidth: 345
Flags: W
HStem: 600 21G<1100.5 1200.5> 900 100<700 1100.5> 1280 20G<1100.5 1200.5>
VStem: 1100.5 100<600 900 1000 1300>
AnchorPoint: "Above" 0 0 mark 0
LayerCount: 2
Back
SplineSet
1150.5 1250 m 25
 1150.5 650 l 1049
750 950 m 25
 1150.5 950 l 1049
EndSplineSet
Fore
SplineSet
700 950 m 1
 700 1000 l 1
 750 1000 l 1
 1100.5 1000 l 1
 1100.5 1250 l 1
 1100.5 1300 l 1
 1150.5 1300 l 1
 1200.5 1300 l 1
 1200.5 1250 l 1
 1200.5 1000 l 1
 1200.5 950 l 1
 1200.5 900 l 1
 1200.5 650 l 1
 1200.5 600 l 1
 1150.5 600 l 1
 1100.5 600 l 1
 1100.5 650 l 1
 1100.5 900 l 1
 750 900 l 1
 700 900 l 1
 700 950 l 1
EndSplineSet
EndChar

StartChar: ibu.cvc
Encoding: 76 -1 110
Width: 1300
VWidth: 345
Flags: W
HStem: 600 21G<700 800> 1200 100<800 1200.5>
VStem: 700 100<600 1200>
AnchorPoint: "Above" 0 0 mark 0
LayerCount: 2
Back
SplineSet
750 650 m 25
 750 1250 l 25
 1150.5 1250 l 1049
EndSplineSet
Fore
SplineSet
750 600 m 1
 700 600 l 1
 700 650 l 1
 700 1250 l 2
 700 1280.26507571 728.540191335 1300 750 1300 c 2
 1150.5 1300 l 1
 1200.5 1300 l 1
 1200.5 1250 l 1
 1200.5 1200 l 1
 1150.5 1200 l 1
 800 1200 l 1
 800 650 l 1
 800 600 l 1
 750 600 l 1
EndSplineSet
EndChar

StartChar: ubu.cvc
Encoding: 77 -1 111
Width: 1300
VWidth: 345
Flags: W
HStem: 600 21G<1100.5 1200.5> 1200 100<700 1100.5>
VStem: 1100.5 100<600 1200>
AnchorPoint: "Above" 0 0 mark 0
LayerCount: 2
Back
SplineSet
750 1250 m 25
 1150.5 1250 l 25
 1150.5 650 l 1049
EndSplineSet
Fore
SplineSet
700 1250 m 1
 700 1300 l 1
 750 1300 l 1
 1150.5 1300 l 2
 1180.76507571 1300 1200.5 1271.45980867 1200.5 1250 c 2
 1200.5 650 l 1
 1200.5 600 l 1
 1150.5 600 l 1
 1100.5 600 l 1
 1100.5 650 l 1
 1100.5 1200 l 1
 750 1200 l 1
 700 1200 l 1
 700 1250 l 1
EndSplineSet
EndChar

StartChar: abu.cvc
Encoding: 78 -1 112
Width: 1300
VWidth: 345
Flags: W
HStem: 600 100<700 900 1000 1200.5> 1280 20G<900 1000>
VStem: 900 100<700 1300>
AnchorPoint: "Above" 0 0 mark 0
LayerCount: 2
Back
SplineSet
750 650 m 25
 1150.5 650 l 1049
950 1250 m 25
 950 650 l 1049
EndSplineSet
Fore
SplineSet
950 1300 m 1
 1000 1300 l 1
 1000 1250 l 1
 1000 700 l 1
 1150.5 700 l 1
 1200.5 700 l 1
 1200.5 650 l 1
 1200.5 600 l 1
 1150.5 600 l 1
 1000 600 l 1
 950 600 l 1
 900 600 l 1
 750 600 l 1
 700 600 l 1
 700 650 l 1
 700 700 l 1
 750 700 l 1
 900 700 l 1
 900 1250 l 1
 900 1300 l 1
 950 1300 l 1
EndSplineSet
EndChar

StartChar: ybu.cvc
Encoding: 79 -1 113
Width: 1300
VWidth: 345
Flags: W
HStem: 600 21G<900 1000> 900 100<700 900 1000 1200.5> 1280 20G<900 1000>
VStem: 900 100<600 900 1000 1300>
AnchorPoint: "Above" 0 0 mark 0
LayerCount: 2
Back
SplineSet
750 950 m 25
 1150.5 950 l 1049
950 1250 m 25
 950 650 l 1049
EndSplineSet
Fore
SplineSet
950 1300 m 1
 1000 1300 l 1
 1000 1250 l 1
 1000 1000 l 1
 1150.5 1000 l 1
 1200.5 1000 l 1
 1200.5 950 l 1
 1200.5 900 l 1
 1150.5 900 l 1
 1000 900 l 1
 1000 650 l 1
 1000 600 l 1
 950 600 l 1
 900 600 l 1
 900 650 l 1
 900 900 l 1
 750 900 l 1
 700 900 l 1
 700 950 l 1
 700 1000 l 1
 750 1000 l 1
 900 1000 l 1
 900 1250 l 1
 900 1300 l 1
 950 1300 l 1
EndSplineSet
EndChar

StartChar: eibu.cvc
Encoding: 90 -1 114
Width: 1300
VWidth: 345
Flags: W
HStem: 600 21G<700 800> 900 100<800 1200.5> 1200 100<800 1200.5>
VStem: 700 100<600 900 1000 1200>
AnchorPoint: "Above" 0 0 mark 0
LayerCount: 2
Back
SplineSet
1150.5 950 m 1
 750 950 l 1049
750 650 m 25
 750 1250 l 25
 1150.5 1250 l 1049
EndSplineSet
Fore
SplineSet
750 600 m 1
 700 600 l 1
 700 650 l 1
 700 900 l 1
 700 950 l 1
 700 1000 l 1
 700 1250 l 2
 700 1280.26507571 728.540191335 1300 750 1300 c 2
 1150.5 1300 l 1
 1200.5 1300 l 1
 1200.5 1250 l 1
 1200.5 1200 l 1
 1150.5 1200 l 1
 800 1200 l 1
 800 1000 l 1
 1150.5 1000 l 1
 1200.5 1000 l 1
 1200.5 950 l 1
 1200.5 900 l 1
 1150.5 900 l 1
 800 900 l 1
 800 650 l 1
 800 600 l 1
 750 600 l 1
EndSplineSet
EndChar

StartChar: oibu.cvc
Encoding: 91 -1 115
Width: 1300
VWidth: 345
Flags: W
HStem: 600 21G<1100.5 1200.5> 900 100<700 1100.5> 1200 100<700 1100.5>
VStem: 1100.5 100<600 900 1000 1200>
AnchorPoint: "Above" 0 0 mark 0
LayerCount: 2
Back
SplineSet
750 1250 m 25
 1150.5 1250 l 25
 1150.5 650 l 1049
750 950 m 25
 1150.5 950 l 1049
EndSplineSet
Fore
SplineSet
700 950 m 1
 700 1000 l 1
 750 1000 l 1
 1100.5 1000 l 1
 1100.5 1200 l 1
 750 1200 l 1
 700 1200 l 1
 700 1250 l 1
 700 1300 l 1
 750 1300 l 1
 1150.5 1300 l 2
 1180.76507571 1300 1200.5 1271.45980867 1200.5 1250 c 2
 1200.5 1000 l 1
 1200.5 950 l 1
 1200.5 900 l 1
 1200.5 650 l 1
 1200.5 600 l 1
 1150.5 600 l 1
 1100.5 600 l 1
 1100.5 650 l 1
 1100.5 900 l 1
 750 900 l 1
 700 900 l 1
 700 950 l 1
EndSplineSet
EndChar

StartChar: aibu.cvc
Encoding: 92 -1 116
Width: 1300
VWidth: 345
Flags: W
HStem: 600 21G<700 800> 900 100<800 900 1000 1200.5> 1280 20G<900 1000>
VStem: 700 100<600 900> 900 100<1000 1300>
AnchorPoint: "Above" 0 0 mark 0
LayerCount: 2
Back
SplineSet
950 1250 m 25
 950 950 l 1049
750 650 m 25
 750 950 l 17
 878 950 l 4
 1150.5 950 l 1033
EndSplineSet
Fore
SplineSet
750 600 m 1
 700 600 l 1
 700 650 l 1
 700 950 l 2
 700 980.265075711 728.540191335 1000 750 1000 c 2
 878 1000 l 1
 900 1000 l 1
 900 1250 l 1
 900 1300 l 1
 950 1300 l 1
 1000 1300 l 1
 1000 1250 l 1
 1000 1000 l 1
 1150.5 1000 l 1
 1200.5 1000 l 1
 1200.5 950 l 1
 1200.5 900 l 1
 1150.5 900 l 1
 1000 900 l 1
 950 900 l 1
 900 900 l 1
 878 900 l 1
 800 900 l 1
 800 650 l 1
 800 600 l 1
 750 600 l 1
EndSplineSet
EndChar

StartChar: aubu.cvc
Encoding: 93 -1 117
Width: 1300
VWidth: 345
Flags: W
HStem: 600 21G<1100.5 1200.5> 900 100<700 900 1000 1100.5> 1280 20G<900 1000>
VStem: 900 100<1000 1300> 1100.5 100<600 900>
AnchorPoint: "Above" 0 0 mark 0
LayerCount: 2
Back
SplineSet
750 950 m 25
 1150.5 950 l 25
 1150.5 650 l 1049
950 1250 m 25
 950 950 l 1049
EndSplineSet
Fore
SplineSet
950 1300 m 1
 1000 1300 l 1
 1000 1250 l 1
 1000 1000 l 1
 1150.5 1000 l 2
 1180.76507571 1000 1200.5 971.459808665 1200.5 950 c 2
 1200.5 650 l 1
 1200.5 600 l 1
 1150.5 600 l 1
 1100.5 600 l 1
 1100.5 650 l 1
 1100.5 900 l 1
 1000 900 l 1
 950 900 l 1
 900 900 l 1
 750 900 l 1
 700 900 l 1
 700 950 l 1
 700 1000 l 1
 750 1000 l 1
 900 1000 l 1
 900 1250 l 1
 900 1300 l 1
 950 1300 l 1
EndSplineSet
EndChar

StartChar: ibu.ccv
Encoding: 108 -1 119
Width: 1300
VWidth: 345
Flags: W
HStem: -200 21G<300 400> 400 100<400 1000>
VStem: 300 100<-200 400>
AnchorPoint: "Above" 0 0 mark 0
LayerCount: 2
Back
SplineSet
350 -150 m 25
 350 450 l 25
 950 450 l 1049
EndSplineSet
Fore
SplineSet
350 -200 m 1
 300 -200 l 1
 300 -150 l 1
 300 450 l 2
 300 480.265075711 328.540191335 500 350 500 c 2
 950 500 l 1
 1000 500 l 1
 1000 450 l 1
 1000 400 l 1
 950 400 l 1
 400 400 l 1
 400 -150 l 1
 400 -200 l 1
 350 -200 l 1
EndSplineSet
Substitution2: "Single Substitution lookup 73 subtable" ibu.cvc
Substitution2: "Single Substitution lookup 69 subtable" ibu.ccv
EndChar

StartChar: ubu.ccv
Encoding: 109 -1 120
Width: 1300
VWidth: 345
Flags: W
HStem: -200 21G<900 1000> 400 100<300 900>
VStem: 900 100<-200 400>
AnchorPoint: "Above" 0 0 mark 0
LayerCount: 2
Back
SplineSet
350 450 m 25
 950 450 l 25
 950 -150 l 1049
EndSplineSet
Fore
SplineSet
300 450 m 1
 300 500 l 1
 350 500 l 1
 950 500 l 2
 980.265075711 500 1000 471.459808665 1000 450 c 2
 1000 -150 l 1
 1000 -200 l 1
 950 -200 l 1
 900 -200 l 1
 900 -150 l 1
 900 400 l 1
 350 400 l 1
 300 400 l 1
 300 450 l 1
EndSplineSet
Substitution2: "Single Substitution lookup 73 subtable" ubu.cvc
Substitution2: "Single Substitution lookup 69 subtable" ubu.ccv
EndChar

StartChar: abu.ccv
Encoding: 110 -1 121
Width: 1300
VWidth: 345
Flags: W
HStem: -200 100<300 600 700 1000> 480 20G<600 700>
VStem: 600 100<-100 500>
AnchorPoint: "Above" 0 0 mark 0
LayerCount: 2
Back
SplineSet
350 -150 m 25
 950 -150 l 1049
650 450 m 25
 650 -150 l 1049
EndSplineSet
Fore
SplineSet
650 500 m 1
 700 500 l 1
 700 450 l 1
 700 -100 l 1
 950 -100 l 1
 1000 -100 l 1
 1000 -150 l 1
 1000 -200 l 1
 950 -200 l 1
 700 -200 l 1
 650 -200 l 1
 600 -200 l 1
 350 -200 l 1
 300 -200 l 1
 300 -150 l 1
 300 -100 l 1
 350 -100 l 1
 600 -100 l 1
 600 450 l 1
 600 500 l 1
 650 500 l 1
EndSplineSet
Substitution2: "Single Substitution lookup 73 subtable" abu.cvc
Substitution2: "Single Substitution lookup 69 subtable" abu.ccv
EndChar

StartChar: aibu.ccv
Encoding: 124 -1 122
Width: 1300
VWidth: 345
Flags: W
HStem: -200 21G<300 400> 100 100<400 600 700 1000> 480 20G<600 700>
VStem: 300 100<-200 100> 600 100<200 500>
AnchorPoint: "Above" 0 0 mark 0
LayerCount: 2
Back
SplineSet
350 -150 m 25
 350 150 l 25
 950 150 l 1049
650 450 m 25
 650 150 l 1049
EndSplineSet
Fore
SplineSet
650 500 m 1
 700 500 l 1
 700 450 l 1
 700 200 l 1
 950 200 l 1
 1000 200 l 1
 1000 150 l 1
 1000 100 l 1
 950 100 l 1
 700 100 l 1
 650 100 l 1
 600 100 l 1
 400 100 l 1
 400 -150 l 1
 400 -200 l 1
 350 -200 l 1
 300 -200 l 1
 300 -150 l 1
 300 150 l 2
 300 180.265075711 328.540191335 200 350 200 c 2
 600 200 l 1
 600 450 l 1
 600 500 l 1
 650 500 l 1
EndSplineSet
EndChar

StartChar: aubu.ccv
Encoding: 125 -1 123
Width: 1300
VWidth: 345
Flags: W
HStem: -200 21G<900 1000> 100 100<300 600 700 900> 480 20G<600 700>
VStem: 600 100<97 100 200 500> 900 100<-200 100>
AnchorPoint: "Above" 0 0 mark 0
LayerCount: 2
Back
SplineSet
350 150 m 25
 950 150 l 25
 950 -150 l 1049
650 450 m 25
 650 147 l 1049
EndSplineSet
Fore
SplineSet
650 500 m 1
 700 500 l 1
 700 450 l 1
 700 200 l 1
 950 200 l 2
 980.265075711 200 1000 171.459808665 1000 150 c 2
 1000 -150 l 1
 1000 -200 l 1
 950 -200 l 1
 900 -200 l 1
 900 -150 l 1
 900 100 l 1
 700 100 l 1
 700 97 l 1
 650 97 l 1
 600 97 l 1
 600 100 l 1
 350 100 l 1
 300 100 l 1
 300 150 l 1
 300 200 l 1
 350 200 l 1
 600 200 l 1
 600 450 l 1
 600 500 l 1
 650 500 l 1
EndSplineSet
EndChar

StartChar: guillemotleft
Encoding: 160 171 145
Width: 1200
VWidth: 345
Flags: HW
LayerCount: 2
Back
SplineSet
879.014648438 754.514648438 m 5
 607.514648438 540.014648438 l 1
 879.014648438 325.514648438 l 1025
607.514648438 754.514648438 m 5
 336.014648438 540.014648438 l 1
 607.514648438 325.514648438 l 1025
EndSplineSet
Fore
SplineSet
646.747687417 785.510916802 m 1
 677.743955781 746.277877824 l 1
 638.510916802 715.281609459 l 1
 416.669518586 540.014648438 l 1
 638.510916802 364.747687417 l 1
 677.743955781 333.751419052 l 1
 646.747687417 294.518380074 l 1
 615.751419052 255.285341095 l 1
 576.518380074 286.281609459 l 1
 305.018380074 500.781609459 l 1
 305.018380074 500.781609459 301.341773785 503.868876173 299.334422494 506.035816429 c 0
 279.802840935 527.120202863 282.466595468 561.430531623 305.018380074 579.247687417 c 2
 576.518380074 793.747687417 l 1
 615.751419052 824.743955781 l 1
 646.747687417 785.510916802 l 1
918.247687417 785.510916802 m 1
 949.243955781 746.277877824 l 1
 910.010916802 715.281609459 l 1
 688.169518586 540.014648438 l 1
 910.010916802 364.747687417 l 1
 949.243955781 333.751419052 l 1
 918.247687417 294.518380074 l 1
 887.251419052 255.285341095 l 1
 848.018380074 286.281609459 l 1
 576.518380074 500.781609459 l 1
 576.518380074 500.781609459 572.841773785 503.868876173 570.834422494 506.035816429 c 0
 551.302840935 527.120202863 553.966595468 561.430531623 576.518380074 579.247687417 c 2
 848.018380074 793.747687417 l 1
 887.251419052 824.743955781 l 1
 918.247687417 785.510916802 l 1
EndSplineSet
EndChar

StartChar: parenleft
Encoding: 162 40 148
Width: 750
VWidth: 345
Flags: HW
HStem: 1286 30G<539 600>
VStem: 107 99<331 745>
LayerCount: 2
Back
SplineSet
565.514648438 1248.01464844 m 24
 559.80859375 1244.36621094 552.04296875 1239.08886719 542.217773438 1232.18457031 c 0
 532.391601562 1225.27929688 513.30078125 1209.84472656 484.9453125 1185.87890625 c 0
 456.58984375 1161.91308594 429.517578125 1136.59472656 403.728515625 1109.92285156 c 0
 377.940429688 1083.25097656 349.297851562 1048.65234375 317.803710938 1006.12695312 c 0
 286.30859375 963.602539062 259.236328125 919.9765625 236.586914062 875.250976562 c 0
 213.936523438 830.525390625 194.845703125 778.4765625 179.313476562 719.10546875 c 0
 163.78125 659.734375 156.015625 599.537109375 156.014648438 538.514648438 c 0
 156.013671875 477.700195312 163.541992188 417.842773438 178.59765625 358.943359375 c 0
 193.653320312 300.04296875 213.219726562 247.825195312 237.295898438 202.2890625 c 0
 261.372070312 156.751953125 287.969726562 113.518554688 317.086914062 72.5888671875 c 0
 346.204101562 31.658203125 375.321289062 -3.1904296875 404.439453125 -31.9580078125 c 0
 433.556640625 -60.7255859375 460.154296875 -85.7138671875 484.23046875 -106.924804688 c 0
 508.307617188 -128.135742188 527.874023438 -143.864257812 542.930664062 -154.11328125 c 2
 565.514648438 -169.485351562 l 1025
EndSplineSet
Fore
SplineSet
607.639736725 1274.94932751 m 1
 634.574415799 1232.82423923 l 1
 592.449327512 1205.88956015 l 2
 587.803132542 1202.91879438 580.437121696 1197.93113815 570.966152638 1191.27576083 c 0
 564.361054867 1186.63407465 544.974178043 1171.14824273 517.221018425 1147.69148938 c 0
 490.1422746 1124.80474699 464.298326301 1100.63494458 439.674382757 1075.16807295 c 0
 416.028841774 1050.71217053 388.564012134 1017.6599318 357.983581046 976.368289875 c 0
 328.065957004 935.973792379 302.507952049 894.751656389 281.192953351 852.66112798 c 0
 260.490389305 811.78173112 242.491836506 763.046953357 227.68554962 706.450724656 c 0
 213.215905991 651.141296545 206.015557043 595.290275145 206.014648432 538.513845534 c 0
 206.013738196 481.829875899 213.00779893 426.221899589 227.040136111 371.325852859 c 0
 241.280233104 315.616103229 259.574602906 267.123945174 281.498015638 225.659403427 c 0
 304.574471757 182.013133091 330.015384299 140.670314729 357.829537752 101.572286841 c 0
 385.592705449 62.5449978799 412.965834746 29.9045541041 439.580613916 3.61021983872 c 0
 468.164236888 -24.6302002549 494.115186369 -48.9970592463 517.282097901 -69.4069448015 c 0
 540.448945089 -89.8159458529 558.924074783 -104.515468011 571.064886099 -112.779692604 c 2
 593.648870475 -128.151762916 l 1
 634.982459121 -156.285984953 l 1
 606.848237084 -197.619573599 l 1
 578.714015047 -238.953162245 l 1
 537.380426401 -210.818940208 l 1
 514.796442025 -195.446869896 l 2
 496.823972093 -183.213047613 476.166289287 -166.455538523 451.178839599 -144.442664575 c 0
 426.193407381 -122.430675129 398.949044362 -96.8209716201 369.298292334 -67.5262354637 c 0
 337.676743378 -36.285413479 306.815497675 0.771408370135 276.344290372 43.6054475337 c 0
 245.924068822 86.366794648 218.169668868 131.490773158 193.093781238 178.918721573 c 0
 166.864850218 228.52644545 146.02640752 284.469834271 130.155176389 346.560865891 c 0
 114.076185446 409.463647287 106.013605554 473.570514725 106.014648444 538.515451342 c 0
 106.015692957 603.783943605 114.346594009 668.327453455 130.941403504 731.760212844 c 0
 147.199569744 793.906171643 167.382657571 849.26905013 191.980874773 897.840825144 c 0
 215.9647042 945.201468612 244.551230496 991.231285745 277.62384083 1035.88561636 c 0
 310.031691013 1079.64475571 339.852017592 1115.78978258 367.782648493 1144.67763017 c 0
 394.736829949 1172.55450854 423.0374129 1199.02142489 452.669606575 1224.06632312 c 0
 481.627384457 1248.5412104 500.422148257 1263.92451911 513.469394238 1273.09337979 c 0
 523.648815804 1280.24659623 531.814054958 1285.8136275 538.579969364 1290.13973673 c 2
 580.705057652 1317.0744158 l 1
 607.639736725 1274.94932751 l 1
EndSplineSet
EndChar

StartChar: denpabu_iy
Encoding: 174 -1 149
Width: 1215
VWidth: 3640
Flags: HW
HStem: 379 99<247 1070> 680 99<592 812> 1196 99<592 812>
VStem: 148 99<477 1291> 401 99<873 1101> 905 99<873 1101>
AnchorPoint: "Above" 0 0 basechar 0
LayerCount: 2
Back
SplineSet
197.817382812 1241.71777344 m 5
 197.817382812 427.432617188 l 1
 1020.34472656 428.255859375 l 1025
450.014648438 987.014648438 m 0
 450.014648438 1058.30175781 474.5859375 1119.12304688 523.729492188 1169.47949219 c 0
 572.872070312 1219.8359375 632.30078125 1245.01464844 702.014648438 1245.01464844 c 0
 771.728515625 1245.01464844 831.157226562 1219.8359375 880.299804688 1169.47949219 c 0
 929.443359375 1119.12304688 954.014648438 1058.30175781 954.014648438 987.014648438 c 0
 954.014648438 915.727539062 929.443359375 854.90625 880.299804688 804.549804688 c 0
 831.157226562 754.193359375 771.728515625 729.014648438 702.014648438 729.014648438 c 0
 632.30078125 729.014648438 572.872070312 754.193359375 523.729492188 804.549804688 c 0
 474.5859375 854.90625 450.014648438 915.727539062 450.014648438 987.014648438 c 0
EndSplineSet
Fore
SplineSet
400.014648438 987.014648438 m 0
 400.014648438 1070.3273958 430.145157629 1145.1740295 487.945488273 1204.40090487 c 0
 545.773824967 1263.65765503 619.592662143 1295.01464844 702.014648438 1295.01464844 c 0
 784.43644242 1295.01464844 858.25578529 1263.65733391 916.083461728 1204.40126031 c 0
 973.884523676 1145.17363558 1004.01464844 1070.32749533 1004.01464844 987.014648438 c 0
 1004.01464844 903.701901066 973.884139245 828.85526738 916.083808603 769.628392004 c 0
 858.255471907 710.371641842 784.436634731 679.014648438 702.014648438 679.014648438 c 0
 619.592854458 679.014648438 545.773511583 710.37196297 487.945835148 769.628036565 c 0
 430.144773201 828.855661294 400.014648438 903.701801539 400.014648438 987.014648438 c 0
500.014648438 987.014648438 m 0
 500.014648438 927.753276585 519.027101799 880.956838706 559.513149228 839.471572811 c 0
 599.970629041 798.01475578 645.008708042 779.014648438 702.014648438 779.014648438 c 0
 759.020396519 779.014648438 804.058981217 798.015076908 844.515800773 839.471217372 c 0
 885.002579505 880.95723262 904.014648438 927.753177058 904.014648438 987.014648438 c 0
 904.014648438 1046.27602029 885.002195074 1093.07245818 844.516147648 1134.55772407 c 0
 804.058667834 1176.01454109 759.02058883 1195.01464844 702.014648438 1195.01464844 c 0
 645.008900357 1195.01464844 599.970315657 1176.01421997 559.513496103 1134.55807951 c 0
 519.026717371 1093.07206426 500.014648438 1046.27611982 500.014648438 987.014648438 c 0
197.817382812 1291.71777344 m 1
 247.817382812 1291.71777344 l 1
 247.817382812 1241.71777344 l 1
 247.817382812 477.482685686 l 1
 1020.29468313 478.255834332 l 1
 1070.29465809 478.305877761 l 1
 1070.34470152 428.305902804 l 1
 1070.39474495 378.305927847 l 1
 1020.39476999 378.255884418 l 1
 197.867426241 377.432642231 l 2
 176.315044434 377.411071119 147.817382812 397.183693165 147.817382812 427.432617188 c 2
 147.817382812 1241.71777344 l 1
 147.817382812 1291.71777344 l 1
 197.817382812 1291.71777344 l 1
EndSplineSet
Ligature2: "Vdenpabu subtable" denpabu iy
EndChar

StartChar: denpabu_uy
Encoding: 175 -1 150
Width: 1215
VWidth: 3640
Flags: HW
HStem: 379 99<148 974> 678 99<405 624> 1194 99<405 624>
VStem: 213 99<872 1100> 717 99<872 1100> 974 99<478 1301>
AnchorPoint: "Above" 0 0 basechar 0
LayerCount: 2
Back
SplineSet
197.817382812 428.255859375 m 1
 1023.64160156 428.255859375 l 1
 1023.64160156 1251.60839844 l 1025
262.514648438 985.514648438 m 0
 262.514648438 1056.80175781 287.0859375 1117.62304688 336.229492188 1167.97949219 c 0
 385.372070312 1218.3359375 444.80078125 1243.51464844 514.514648438 1243.51464844 c 0
 584.228515625 1243.51464844 643.657226562 1218.3359375 692.799804688 1167.97949219 c 0
 741.943359375 1117.62304688 766.514648438 1056.80175781 766.514648438 985.514648438 c 0
 766.514648438 914.227539062 741.943359375 853.40625 692.799804688 803.049804688 c 0
 643.657226562 752.693359375 584.228515625 727.514648438 514.514648438 727.514648438 c 0
 444.80078125 727.514648438 385.372070312 752.693359375 336.229492188 803.049804688 c 0
 287.0859375 853.40625 262.514648438 914.227539062 262.514648438 985.514648438 c 0
EndSplineSet
Fore
SplineSet
212.514648438 985.514648438 m 0
 212.514648438 1068.8273958 242.645157629 1143.6740295 300.445488273 1202.90090487 c 0
 358.273824967 1262.15765503 432.092662143 1293.51464844 514.514648438 1293.51464844 c 0
 596.93644242 1293.51464844 670.75578529 1262.15733391 728.583461728 1202.90126031 c 0
 786.384523676 1143.67363558 816.514648438 1068.82749533 816.514648438 985.514648438 c 0
 816.514648438 902.201901066 786.384139245 827.35526738 728.583808603 768.128392004 c 0
 670.755471907 708.871641842 596.936634731 677.514648438 514.514648438 677.514648438 c 0
 432.092854458 677.514648438 358.273511583 708.87196297 300.445835148 768.128036565 c 0
 242.644773201 827.355661294 212.514648438 902.201801539 212.514648438 985.514648438 c 0
312.514648438 985.514648438 m 0
 312.514648438 926.253276585 331.527101799 879.456838706 372.013149228 837.971572811 c 0
 412.470629041 796.51475578 457.508708042 777.514648438 514.514648438 777.514648438 c 0
 571.520396519 777.514648438 616.558981217 796.515076908 657.015800773 837.971217372 c 0
 697.502579505 879.45723262 716.514648438 926.253177058 716.514648438 985.514648438 c 0
 716.514648438 1044.77602029 697.502195074 1091.57245818 657.016147648 1133.05772407 c 0
 616.558667834 1174.51454109 571.52058883 1193.51464844 514.514648438 1193.51464844 c 0
 457.508900357 1193.51464844 412.470315657 1174.51421997 372.013496103 1133.05807951 c 0
 331.526717371 1091.57206426 312.514648438 1044.77611982 312.514648438 985.514648438 c 0
147.817382812 428.255859375 m 1
 147.817382812 478.255859375 l 1
 197.817382812 478.255859375 l 1
 973.64160156 478.255859375 l 1
 973.64160156 1251.60839844 l 1
 973.64160156 1301.60839844 l 1
 1023.64160156 1301.60839844 l 1
 1073.64160156 1301.60839844 l 1
 1073.64160156 1251.60839844 l 1
 1073.64160156 428.255859375 l 2
 1073.64160156 406.79605071 1053.90667727 378.255859375 1023.64160156 378.255859375 c 2
 197.817382812 378.255859375 l 1
 147.817382812 378.255859375 l 1
 147.817382812 428.255859375 l 1
EndSplineSet
Ligature2: "Vdenpabu subtable" denpabu uy
EndChar

StartChar: .notdef
Encoding: 257 -1 162
Width: 0
VWidth: 345
Flags: HW
LayerCount: 2
Back
SplineSet
607.514648438 -169.485351562 m 5
 607.514648438 15.0146484375 l 1025
81 315.014648438 m 29
 82.5146484375 -169.485351562 l 1
 1132.51464844 -169.485351562 l 1025
EndSplineSet
Fore
SplineSet
80.8436902956 365.01440411 m 1
 130.843445968 365.170713815 l 1
 130.999755672 315.170958142 l 1
 132.358582298 -119.485351562 l 1
 557.514648438 -119.485351562 l 1
 557.514648438 15.0146484375 l 1
 557.514648438 65.0146484375 l 1
 607.514648438 65.0146484375 l 1
 657.514648438 65.0146484375 l 1
 657.514648438 15.0146484375 l 1
 657.514648438 -119.485351562 l 1
 1132.51464844 -119.485351562 l 1
 1182.51464844 -119.485351562 l 1
 1182.51464844 -169.485351562 l 1
 1182.51464844 -219.485351562 l 1
 1132.51464844 -219.485351562 l 1
 657.514648438 -219.485351562 l 1
 607.514648438 -219.485351562 l 1
 557.514648438 -219.485351562 l 1
 82.5146484375 -219.485351562 l 2
 57.753045083 -219.485351562 32.6038679504 -198.10270615 32.5148927653 -169.641661266 c 2
 31.0002443278 314.858338734 l 1
 30.8439346234 364.858094406 l 1
 80.8436902956 365.01440411 l 1
EndSplineSet
EndChar

StartChar: NameMe.192
Encoding: 258 -1 163
Width: 1000
VWidth: 0
Flags: HW
LayerCount: 2
Back
SplineSet
165.009765625 235 m 5
 566.009765625 235 l 1
 566 -32 l 1
 165 -32 l 1
 165.009765625 235 l 5
165 102 m 5
 566 102 l 1025
33 367.009765625 m 25
 700 367.009765625 l 1025
165.009765625 767 m 1
 566.009765625 767 l 1
 566 500 l 1
 165 500 l 1
 165.009765625 767 l 1
165 634 m 1
 566 634 l 1025
EndSplineSet
Fore
SplineSet
115 634 m 1
 115 684 l 1
 115.006729835 684 l 1
 115.006729835 711.667276256 115.009765658 739.334552512 115.009765658 767.001828769 c 0
 115.01080454 795.405681307 139.963953336 817 165.009765625 817 c 2
 566.009765625 817 l 2
 596.274252586 817 616.010550616 788.461363187 616.009765592 766.998171231 c 2
 615.999999967 499.998171231 l 2
 615.998961085 471.594318693 591.045812289 450 566 450 c 2
 165 450 l 2
 134.735513039 450 114.999215009 478.538636813 115.000000033 500.001828769 c 0
 115.000000033 528.001219179 115.003072298 556.00060959 115.003072298 584 c 1
 115 584 l 1
 115 634 l 1
-17 367.009765625 m 1
 -17 417.009765625 l 1
 33 417.009765625 l 1
 700 417.009765625 l 1
 750 417.009765625 l 1
 750 367.009765625 l 1
 750 317.009765625 l 1
 700 317.009765625 l 1
 33 317.009765625 l 1
 -17 317.009765625 l 1
 -17 367.009765625 l 1
115 102 m 1
 115 152 l 1
 115.006729835 152 l 1
 115.006729835 179.667276256 115.009765658 207.334552512 115.009765658 235.001828769 c 0
 115.01080454 263.405681307 139.963953336 285 165.009765625 285 c 2
 566.009765625 285 l 2
 596.274252586 285 616.010550616 256.461363187 616.009765592 234.998171231 c 2
 615.999999967 -32.0018287687 l 2
 615.998961085 -60.4056813069 591.045812289 -82 566 -82 c 2
 165 -82 l 2
 134.735513039 -82 114.999215009 -53.4613631872 115.000000033 -31.9981712313 c 0
 115.000000033 -3.99878082085 115.003072298 24.0006095896 115.003072298 52 c 1
 115 52 l 1
 115 102 l 1
516.006729835 684 m 1
 516.006729835 695 516.007936823 706 516.007936823 717 c 1
 215.00793689 717 l 1
 215.00793689 706 215.006729902 695 215.006729902 684 c 1
 516.006729835 684 l 1
516.003072298 584 m 1
 215.003072365 584 l 1
 215.003072365 572.666666667 215.001828802 561.333333333 215.001828802 550 c 1
 516.001828735 550.000000001 l 1
 516.001828735 561.333333334 516.003072298 572.666666667 516.003072298 584 c 1
516.006729835 152 m 1
 516.006729835 163 516.007936823 174 516.007936823 185 c 1
 215.00793689 185 l 1
 215.00793689 174 215.006729902 163 215.006729902 152 c 1
 516.006729835 152 l 1
516.003072298 52 m 1
 215.003072365 52 l 1
 215.003072365 40.6666666667 215.001828802 29.3333333333 215.001828802 18 c 1
 516.001828735 18.0000000006 l 1
 516.001828735 29.3333333337 516.003072298 40.6666666669 516.003072298 52 c 1
EndSplineSet
EndChar

StartChar: zy_dy
Encoding: 259 -1 164
Width: 900
VWidth: 345
Flags: HW
HStem: 602 99<200 400 500 800> 902 99<200 400 500 700> 1202 99<500 800>
VStem: 100 99<700 902 1000 1300> 400 99<700 902 1000 1202>
CounterMasks: 1 e0
LayerCount: 2
Back
SplineSet
450 651.75 m 28
 450 1251 l 29
 750 1251 l 1053
750 651 m 5
 150 651 l 5
 150 1251 l 1053
651 951 m 29
 150 951 l 1029
EndSplineSet
Fore
SplineSet
701 951 m 1
 701 901 l 1
 651 901 l 1
 500 901 l 1
 500 701 l 1
 750 701 l 1
 800 701 l 1
 800 651 l 1
 800 601 l 1
 750 601 l 1
 150 601 l 2
 119.734924289 601 100 629.540191335 100 651 c 2
 100 901 l 1
 100 951 l 1
 100 1001 l 1
 100 1251 l 1
 100 1301 l 1
 150 1301 l 1
 200 1301 l 1
 200 1251 l 1
 200 1001 l 1
 400 1001 l 1
 400 1251 l 2
 400 1281.26507571 428.540191335 1301 450 1301 c 2
 750 1301 l 1
 800 1301 l 1
 800 1251 l 1
 800 1201 l 1
 750 1201 l 1
 500 1201 l 1
 500 1001 l 1
 651 1001 l 1
 701 1001 l 1
 701 951 l 1
200 901 m 1
 200 701 l 1
 400 701 l 1
 400 901 l 1
 200 901 l 1
EndSplineSet
EndChar

StartChar: zy_vy
Encoding: 195 -1 165
Width: 900
VWidth: 0
Flags: HW
HStem: 602 99<200 400 500 616> 902 99<200 400> 1270 30G<100 200 400 500 829 891>
VStem: 100 99<700 902 1000 1300> 400 99<700 902 1000 1300>
AnchorPoint: "Above" 0 0 basechar 0
LayerCount: 2
Back
SplineSet
450 1251 m 29
 450 651.75 l 1052
861 1248 m 4
 812 1183 767 1092 726 975 c 132
 685 858 663 750 660 651 c 5
 150 651 l 5
 150 1251 l 1053
439.5 951 m 29
 150 951 l 1029
EndSplineSet
Fore
SplineSet
891.098189249 1287.92616941 m 1
 931.024358661 1257.82798016 l 1
 900.926169412 1217.90181075 l 2
 856.521387694 1158.99750847 813.10359613 1072.37391568 773.186626801 958.464515395 c 0
 733.505810044 845.229013918 712.785854545 742.17579805 709.977058957 649.485543668 c 0
 709.158611313 622.476771397 685.97497654 601 660 601 c 2
 150 601 l 2
 119.734924289 601 100 629.540191335 100 651 c 2
 100 901 l 1
 100 951 l 1
 100 1001 l 1
 100 1251 l 1
 100 1301 l 1
 150 1301 l 1
 200 1301 l 1
 200 1251 l 1
 200 1001 l 1
 400 1001 l 1
 400 1251 l 1
 400 1301 l 1
 450 1301 l 1
 500 1301 l 1
 500 1251 l 1
 500 701 l 1
 612.864218044 701 l 1
 620.688574861 791.271818439 642.937298828 889.157418716 678.813373199 991.535484605 c 0
 720.89640387 1111.62608432 767.478612306 1207.00249153 821.073830588 1278.09818925 c 2
 851.172019837 1318.02435866 l 1
 891.098189249 1287.92616941 l 1
200 901 m 1
 200 701 l 1
 400 701 l 1
 400 901 l 1
 200 901 l 1
EndSplineSet
EndChar

StartChar: NameMe.210
Encoding: 210 -1 166
Width: 900
VWidth: 0
Flags: HW
HStem: 602 99<100 400 500 800> 902 99<500 700> 1202 99<100 400 500 700>
VStem: 400 99<700 902 1000 1202> 700 99<1000 1202>
CounterMasks: 1 e0
LayerCount: 2
Back
SplineSet
450 1251 m 5
 750 1251 l 5
 750 951 l 5
 450 951 l 1029
150 651 m 5
 750 651 l 1029
150 1251 m 5
 450 1251 l 5
 450 651 l 1029
EndSplineSet
Fore
SplineSet
100 1251 m 1
 100 1301 l 1
 150 1301 l 1
 400 1301 l 1
 450 1301 l 1
 750 1301 l 2
 780.265075711 1301 800 1272.45980867 800 1251 c 2
 800 951 l 2
 800 920.734924289 771.459808665 901 750 901 c 2
 500 901 l 1
 500 701 l 1
 750 701 l 1
 800 701 l 1
 800 651 l 1
 800 601 l 1
 750 601 l 1
 500 601 l 1
 450 601 l 1
 400 601 l 1
 150 601 l 1
 100 601 l 1
 100 651 l 1
 100 701 l 1
 150 701 l 1
 400 701 l 1
 400 901 l 1
 400 951 l 1
 400 1001 l 1
 400 1201 l 1
 150 1201 l 1
 100 1201 l 1
 100 1251 l 1
500 1201 m 1
 500 1001 l 1
 700 1001 l 1
 700 1201 l 1
 500 1201 l 1
EndSplineSet
EndChar

StartChar: NameMe.242
Encoding: 242 -1 167
Width: 900
VWidth: 0
Flags: HW
HStem: 585 32G<713 772> 602 99<100 419> 1202 99<100 419> 1287 30G<713 772>
LayerCount: 2
Back
SplineSet
450 1218 m 29
 450 681 l 1053
750 651 m 5
 683.767578125 878.170898438 604.852539062 1115.43066406 450 1251 c 5
 150 1251 l 1029
750 1251 m 5
 683.127929688 1044.29003906 602.469726562 760.912109375 450 651 c 5
 150 651 l 1053
EndSplineSet
Fore
SplineSet
765.390038894 1298.57254148 m 1x60
 812.962580374 1283.18250259 l 1
 797.57254148 1235.60996111 l 2
 770.111951031 1150.72583007 740.567289844 1049.6383611 702.706553748 951.508515818 c 1
 740.474099743 858.229818853 770.352913214 759.826875284 798.001462668 664.994984163 c 2
 811.996446831 616.993521496 l 1
 763.994984163 602.998537332 l 1
 715.993521496 589.003553169 l 1
 701.998537332 637.005015837 l 2
 684.075463843 698.479450744 665.176625968 760.005040283 644.382039317 819.459362844 c 1
 600.726547129 734.383235794 547.358336621 659.546151412 479.238691357 610.440180872 c 0
 470.687774938 604.276011223 458.910860934 601 450 601 c 2
 150 601 l 1
 100 601 l 1
 100 651 l 1
 100 701 l 1
 150 701 l 1
 400 701 l 1
 400 1201 l 1
 150 1201 l 1
 100 1201 l 1
 100 1251 l 1
 100 1301 l 1
 150 1301 l 1
 450 1301 l 2
 461.598917449 1301 473.835647412 1296.58652859 482.935323749 1288.62000066 c 0
 547.51531269 1232.08191437 598.969850819 1161.19134255 641.587260685 1082.53809778 c 1
 663.530203874 1145.18237578 683.598277529 1208.18667762 702.42745852 1266.39003889 c 2
 717.817497415 1313.96258037 l 1
 765.390038894 1298.57254148 l 1x60
592.299086959 952.724664878 m 1
 565.206043578 1014.0803299 534.865873289 1070.81197217 500 1119.96989215 c 1
 500 776.176742274 l 1
 534.203543388 825.417605568 564.680405609 886.616211913 592.299086959 952.724664878 c 1
EndSplineSet
EndChar

StartChar: NameMe.212
Encoding: 212 -1 168
Width: 900
VWidth: 0
Flags: HW
HStem: 602 99<500 800> 902 99<500 700> 1202 99<200 400 500 700>
VStem: 100 99<602 1202> 400 99<700 902 1000 1202> 700 99<1000 1202>
CounterMasks: 1 fc
LayerCount: 2
Back
SplineSet
450 951 m 5
 750 951 l 5
 750 1251 l 5
 450 1251 l 5
 150 1251 l 5
 150 651 l 1052
750 651 m 5
 450 651 l 5
 450 1251 l 1029
EndSplineSet
Fore
SplineSet
800 651 m 1
 800 601 l 1
 750 601 l 1
 450 601 l 2
 419.734924289 601 400 629.540191335 400 651 c 2
 400 901 l 1
 400 951 l 1
 400 1001 l 1
 400 1201 l 1
 200 1201 l 1
 200 651 l 1
 200 601 l 1
 150 601 l 1
 100 601 l 1
 100 651 l 1
 100 1251 l 2
 100 1272.45980867 119.734924289 1301 150 1301 c 2
 400 1301 l 1
 450 1301 l 1
 500 1301 l 1
 750 1301 l 2
 771.459808665 1301 800 1281.26507571 800 1251 c 2
 800 951 l 2
 800 929.540191335 780.265075711 901 750 901 c 2
 500 901 l 1
 500 701 l 1
 750 701 l 1
 800 701 l 1
 800 651 l 1
500 1201 m 1
 500 1001 l 1
 700 1001 l 1
 700 1201 l 1
 500 1201 l 1
EndSplineSet
EndChar

StartChar: NameMe.244
Encoding: 244 -1 169
Width: 900
VWidth: 0
Flags: HW
HStem: 602 15G<100 200 428 487 713 772> 1202 99<200 419> 1287 30G<713 772>
VStem: 100 99<602 1202>
LayerCount: 2
Back
SplineSet
750 651 m 5
 683.767578125 878.170898438 604.852539062 1115.43066406 450 1251 c 5
 150 1251 l 5
 150 651 l 1052
750 1251 m 5
 683.127929688 1044.29003906 602.469726562 760.912109375 450 651 c 13
 450 1201.5 l 1053
EndSplineSet
Fore
SplineSet
765.390038894 1298.57254148 m 1xd0
 812.962580374 1283.18250259 l 1
 797.57254148 1235.60996111 l 2
 770.111951031 1150.72583007 740.567289844 1049.6383611 702.706553748 951.508515818 c 1
 740.474099743 858.229818853 770.352913214 759.826875284 798.001462668 664.994984163 c 2
 811.996446831 616.993521496 l 1
 763.994984163 602.998537332 l 1
 715.993521496 589.003553169 l 1
 701.998537332 637.005015837 l 2
 684.075463843 698.479450744 665.176625968 760.005040283 644.382039317 819.459362844 c 1
 600.726547129 734.383235794 547.358336621 659.546151412 479.238691357 610.440180872 c 0
 455.924252088 593.633308735 422.197106199 600.472451814 407.271224335 625.033642339 c 0
 402.527078897 632.840340868 400 642.178619206 400 651 c 2
 400 1201 l 1
 200 1201 l 1
 200 651 l 1
 200 601 l 1
 150 601 l 1
 100 601 l 1
 100 651 l 1
 100 1251 l 2
 100 1272.45980867 119.734924289 1301 150 1301 c 2
 450 1301 l 2
 461.598917449 1301 473.835647412 1296.58652859 482.935323749 1288.62000066 c 0
 547.67385709 1231.94311291 599.222414333 1160.84318218 641.900979229 1081.95867444 c 1
 663.778302656 1145.13939651 683.697098408 1208.49214536 702.42745852 1266.39003889 c 2
 717.817497415 1313.96258037 l 1
 765.390038894 1298.57254148 l 1xd0
500 1119.96989215 m 1
 500 774.939087536 l 1
 534.670513829 823.767962951 565.271292129 885.139995018 592.835056298 951.509330436 c 1
 565.606300118 1013.33121081 535.095967021 1070.48755955 500 1119.96989215 c 1
EndSplineSet
EndChar

StartChar: NameMe.209
Encoding: 209 -1 170
Width: 900
VWidth: 0
Flags: HW
HStem: 602 99<200 400 500 800> 902 99<500 700> 1202 99<200 700>
VStem: 100 99<700 1202> 400 99<700 902> 700 99<1000 1202>
CounterMasks: 1 fc
LayerCount: 2
Back
SplineSet
450 1251 m 5
 750 1251 l 5
 750 951 l 5
 450 951 l 13
 450 651 l 1053
450 1251 m 5
 150 1251 l 5
 150 651 l 5
 750 651 l 1029
EndSplineSet
Fore
SplineSet
400 1201 m 1
 200 1201 l 1
 200 701 l 1
 400 701 l 1
 400 951 l 2
 400 972.459808665 419.734924289 1001 450 1001 c 2
 700 1001 l 1
 700 1201 l 1
 500 1201 l 1
 450 1201 l 1
 400 1201 l 1
400 601 m 1
 150 601 l 2
 128.540191335 601 100 620.734924289 100 651 c 2
 100 1251 l 2
 100 1272.45980867 119.734924289 1301 150 1301 c 2
 400 1301 l 1
 450 1301 l 1
 500 1301 l 1
 750 1301 l 2
 780.265075711 1301 800 1272.45980867 800 1251 c 2
 800 951 l 2
 800 920.734924289 771.459808665 901 750 901 c 2
 500 901 l 1
 500 701 l 1
 750 701 l 1
 800 701 l 1
 800 651 l 1
 800 601 l 1
 750 601 l 1
 500 601 l 1
 450 601 l 1
 400 601 l 1
EndSplineSet
EndChar

StartChar: zy_by
Encoding: 227 -1 171
Width: 900
VWidth: 0
Flags: HW
HStem: 602 99<200 400 500 800> 902 99<200 400> 1202 99<500 800>
VStem: 100 99<700 902 1000 1300> 400 99<700 902 1000 1202>
CounterMasks: 1 e0
LayerCount: 2
Back
SplineSet
450 651.75 m 28
 450 1251 l 29
 750 1251 l 1053
750 651 m 5
 150 651 l 5
 150 1251 l 1053
439.5 951 m 29
 150 951 l 1029
EndSplineSet
Fore
SplineSet
800 651 m 1
 800 601 l 1
 750 601 l 1
 150 601 l 2
 119.734924289 601 100 629.540191335 100 651 c 2
 100 901 l 1
 100 951 l 1
 100 1001 l 1
 100 1251 l 1
 100 1301 l 1
 150 1301 l 1
 200 1301 l 1
 200 1251 l 1
 200 1001 l 1
 400 1001 l 1
 400 1251 l 2
 400 1281.26507571 428.540191335 1301 450 1301 c 2
 750 1301 l 1
 800 1301 l 1
 800 1251 l 1
 800 1201 l 1
 750 1201 l 1
 500 1201 l 1
 500 701 l 1
 750 701 l 1
 800 701 l 1
 800 651 l 1
200 901 m 1
 200 701 l 1
 400 701 l 1
 400 901 l 1
 200 901 l 1
EndSplineSet
EndChar

StartChar: zy_gy
Encoding: 291 -1 172
Width: 900
VWidth: 0
Flags: HW
HStem: 602 99<200 400> 902 99<200 400> 1270 30G<100 200 400 500>
VStem: 100 99<701 902 1000 1300> 400 99<701 829 1071 1300>
LayerCount: 2
Back
SplineSet
750 1251 m 29
 448.5 949.5 l 29
 750 651 l 1053
150 1251 m 29
 150 651 l 5
 450 651.75 l 28
 450 1251 l 1053
439.5 951 m 29
 150 951 l 1029
EndSplineSet
Fore
SplineSet
150 1301 m 1
 200 1301 l 1
 200 1251 l 1
 200 1001 l 1
 400 1001 l 1
 400 1251 l 1
 400 1301 l 1
 450 1301 l 1
 500 1301 l 1
 500 1251 l 1
 500 1071.71067812 l 1
 714.644660941 1286.35533906 l 1
 750 1321.71067812 l 1
 785.355339059 1286.35533906 l 1
 820.710678119 1251 l 1
 785.355339059 1215.64466094 l 1
 519.387896753 949.677218634 l 1
 785.17812264 686.531671612 l 1
 820.709794252 651.353548971 l 1
 785.531671612 615.82187736 l 1
 750.353548971 580.290205748 l 1
 714.82187736 615.468328388 l 1
 500 828.15267463 l 1
 500 651.75 l 2
 500 626.930886407 478.574587191 601.821280218 450.124999609 601.750156249 c 2
 150.124999609 601.000156249 l 2
 128.43399503 600.945928738 100 620.775426866 100 651 c 2
 100 901 l 1
 100 951 l 1
 100 1001 l 1
 100 1251 l 1
 100 1301 l 1
 150 1301 l 1
400 901 m 1
 200 901 l 1
 200 701.12515625 l 1
 400 701.62515625 l 1
 400 901 l 1
EndSplineSet
EndChar

StartChar: zy_my
Encoding: 323 -1 173
Width: 900
VWidth: 0
Flags: HW
HStem: 602 99<200 400 500 700> 902 99<200 400> 1202 99<500 700>
VStem: 100 99<700 902 1000 1300> 400 99<700 902 1000 1202> 700 99<700 1202>
CounterMasks: 1 fc
LayerCount: 2
Back
SplineSet
450 651.75 m 28
 450 1251 l 29
 750 1251 l 29
 750 651 l 5
 150 651 l 5
 150 1251 l 1053
439.5 951 m 29
 150 951 l 1029
EndSplineSet
Fore
SplineSet
500 701 m 1
 700 701 l 1
 700 1201 l 1
 500 1201 l 1
 500 701 l 1
200 901 m 1
 200 701 l 1
 400 701 l 1
 400 901 l 1
 200 901 l 1
200 1001 m 1
 400 1001 l 1
 400 1251 l 2
 400 1281.26507571 428.540191335 1301 450 1301 c 2
 750 1301 l 2
 780.265075711 1301 800 1272.45980867 800 1251 c 2
 800 651 l 2
 800 620.734924289 771.459808665 601 750 601 c 2
 450 601 l 1
 150 601 l 2
 119.734924289 601 100 629.540191335 100 651 c 2
 100 901 l 1
 100 951 l 1
 100 1001 l 1
 100 1251 l 1
 100 1301 l 1
 150 1301 l 1
 200 1301 l 1
 200 1251 l 1
 200 1001 l 1
EndSplineSet
EndChar

StartChar: NameMe.241
Encoding: 241 -1 174
Width: 900
VWidth: 0
Flags: HW
LayerCount: 2
Back
SplineSet
750 651 m 5
 683.767578125 878.170898438 604.852539062 1115.43066406 450 1251 c 5
 150 1251 l 5
 150 651 l 29
 450 651 l 5
 602.469726562 760.912109375 683.127929688 1044.29003906 750 1251 c 1029
EndSplineSet
Fore
SplineSet
593.481479578 951.729465898 m 1
 589.878535173 959.911994847 586.115064248 968.25167908 582.500280862 976.033227745 c 0
 540.912480132 1065.55933781 490.598514586 1144.11672415 430.647612928 1201 c 1
 200 1201 l 1
 200 701 l 1
 433.033050094 701 l 1
 490.077585776 747.753176233 540.057189682 829.337049566 582.389638039 925.770241968 c 0
 586.134383097 934.300760156 589.84200009 942.986150427 593.481479578 951.729465898 c 1
641.921611888 1080.76997464 m 1
 663.784490482 1144.35527047 683.62708223 1208.27571657 702.42745852 1266.39003889 c 2
 717.817497415 1313.96258037 l 1
 765.390038894 1298.57254148 l 1
 812.962580374 1283.18250259 l 1
 797.57254148 1235.60996111 l 2
 772.537872515 1158.2246578 745.161309929 1068.63288639 712.225820728 980.445130861 c 0
 708.830399345 971.353582562 705.235482357 961.917129513 701.645618951 952.686819303 c 1
 705.463666286 943.312389561 709.222990314 933.841444801 712.874811041 924.41535618 c 0
 745.737396716 839.590369393 772.879796299 751.159906988 798.001462668 664.994984163 c 2
 811.996446831 616.993521496 l 1
 763.994984163 602.998537332 l 1
 715.993521496 589.003553169 l 1
 701.998537332 637.005015837 l 2
 683.915199718 699.029141426 664.949610017 761.517164884 643.961196408 821.894845248 c 1
 600.958443349 737.286058741 548.858284684 660.627431344 479.238691357 610.440180872 c 0
 472.010233202 605.22934262 460.541117544 601 450 601 c 2
 150 601 l 2
 128.540191335 601 100 620.734924289 100 651 c 2
 100 1251 l 2
 100 1272.45980867 119.734924289 1301 150 1301 c 2
 450 1301 l 2
 461.598917449 1301 473.835647412 1296.58652859 482.935323749 1288.62000066 c 0
 547.922356322 1231.72555835 599.378321477 1159.70446859 641.921611888 1080.76997464 c 1
EndSplineSet
EndChar

StartChar: NameMe.240
Encoding: 240 -1 175
Width: 900
VWidth: 0
Flags: HW
LayerCount: 2
Back
SplineSet
450 1222.5 m 29
 450 675 l 1053
750 651 m 4
 708 794 665 914.5 621 1012.5 c 4
 577 1110.5 520 1190 450 1251 c 5
 150 1251 l 5
 150 651 l 5
 450 651 l 5
 467 663 483 676.75 498 692.25 c 4
 513 707.75 527.75 726.75 542.25 749.25 c 4
 556.75 771.75 569.25 791.25 579.75 807.75 c 4
 590.25 824.25 602.5 848.5 616.5 880.5 c 4
 630.5 912.5 640.75 935.75 647.25 950.25 c 4
 653.75 964.75 663.75 991.25 677.25 1029.75 c 4
 690.75 1068.25 699.25 1092.5 702.75 1102.5 c 4
 706.25 1112.5 714.75 1138.75 728.25 1181.25 c 4
 741.75 1223.75 749 1247 750 1251 c 1028
EndSplineSet
Fore
SplineSet
593.024256581 951.365922993 m 0
 589.925024558 958.74339455 586.726090147 966.238288033 583.725425052 973.141812734 c 0
 580.947031776 979.533964473 578.167303659 985.82692365 575.386523321 992.020479858 c 0
 553.463951322 1040.84802658 528.210174985 1084.40349725 500 1122.72732602 c 1
 500 775.991780543 l 2
 500.073809402 776.10608546 500.147625512 776.22051417 500.221448245 776.335066686 c 0
 514.683365585 798.775972903 527.136694219 818.20341099 537.566925613 834.59377461 c 0
 545.684495584 847.349955991 557.289689162 869.906783774 570.692133255 900.540941701 c 0
 576.967607074 914.884881859 582.495202829 927.483602755 587.278777782 938.34568828 c 0
 589.248525966 942.818404488 591.239746653 947.330497135 593.024256581 951.365922993 c 0
642.678154392 1082.26455786 m 1
 649.018098457 1100.34946743 653.336674096 1112.67349813 655.557082182 1119.01752124 c 0
 658.546638196 1127.55910985 667.179043964 1154.14736167 680.596353733 1196.38704058 c 0
 693.218208698 1236.12250991 700.66487855 1260.19389982 701.558246171 1263.38826596 c 2
 713.619656245 1311.63390626 l 1
 762.126781252 1299.50712501 l 1
 810.633906259 1287.38034376 l 1
 798.507125007 1238.87321875 l 2
 796.412003037 1230.49273087 789.621053838 1209.29739066 775.903646267 1166.11295942 c 0
 762.320956036 1123.35263833 753.953361804 1097.44089015 749.942917818 1085.98247876 c 0
 746.433699576 1075.95614093 737.934811468 1051.70933538 724.433356704 1013.20518661 c 0
 717.511368217 993.464700924 711.462682284 976.733191117 706.221883915 962.86194629 c 0
 704.636885251 958.666802158 702.945149027 954.272465176 701.418685419 950.37599255 c 0
 704.852454739 941.710948886 708.358163762 932.718505287 711.697108868 924.001486501 c 0
 741.055905744 847.354169523 769.777043064 761.092761729 797.973613675 665.090152268 c 2
 812.063765943 617.116538593 l 1
 764.090152268 603.026386325 l 1
 716.116538593 588.936234057 l 1
 702.026386325 636.909847732 l 2
 682.662831294 702.838142243 663.116994092 763.810614007 643.43565843 819.749492152 c 1
 636.050261251 804.908850832 628.961170218 791.950375983 621.933074387 780.90622539 c 0
 611.363305781 764.29658901 598.816634415 744.724027097 584.278551755 722.164933314 c 0
 568.361633445 697.466266971 551.736708768 675.879083693 533.930107088 657.478928624 c 0
 523.136840747 646.325886738 511.820902593 635.9018974 500 626.243102316 c 1
 500 625 l 1
 498.470615533 625 l 1
 492.070906502 619.825551426 485.524494919 614.874196276 478.83415988 610.151606837 c 0
 471.765732988 605.162129031 460.369827245 601 450 601 c 2
 150 601 l 2
 128.540191335 601 100 620.734924289 100 651 c 2
 100 1251 l 2
 100 1272.45980867 119.734924289 1301 150 1301 c 2
 450 1301 l 2
 461.528706638 1301 473.757939326 1296.61761025 482.848914048 1288.69547514 c 0
 546.500261553 1233.22787231 599.793198381 1163.95995328 642.678154392 1082.26455786 c 1
400 1201 m 1
 200 1201 l 1
 200 701 l 1
 400 701 l 1
 400 1201 l 1
EndSplineSet
EndChar

StartChar: NameMe.208
Encoding: 208 -1 176
Width: 900
VWidth: 0
Flags: HW
LayerCount: 2
Back
SplineSet
450 1230 m 29
 450 951 l 1053
450 1251 m 5
 750 1251 l 5
 750 951 l 5
 450 951 l 13
 450 651 l 1053
450 1251 m 5
 150 1251 l 5
 150 651 l 5
 750 651 l 1029
EndSplineSet
Fore
SplineSet
400 701 m 1
 400 901 l 1
 400 951 l 1
 400 1201 l 1
 200 1201 l 1
 200 701 l 1
 400 701 l 1
400 601 m 1
 150 601 l 2
 128.540191335 601 100 620.734924289 100 651 c 2
 100 1251 l 2
 100 1272.45980867 119.734924289 1301 150 1301 c 2
 400 1301 l 1
 450 1301 l 1
 500 1301 l 1
 750 1301 l 2
 780.265075711 1301 800 1272.45980867 800 1251 c 2
 800 951 l 2
 800 920.734924289 771.459808665 901 750 901 c 2
 500 901 l 1
 500 701 l 1
 750 701 l 1
 800 701 l 1
 800 651 l 1
 800 601 l 1
 750 601 l 1
 500 601 l 1
 450 601 l 1
 400 601 l 1
500 1001 m 1
 700 1001 l 1
 700 1201 l 1
 500 1201 l 1
 500 1001 l 1
EndSplineSet
EndChar

StartChar: NameMe.214
Encoding: 214 -1 177
Width: 900
VWidth: 0
Flags: HW
LayerCount: 2
Back
SplineSet
150 1050 m 5
 549 1050 l 1053
150 651 m 21
 250.5 651 352.471679688 769.895507812 349.5 951 c 1037
549 1251 m 29
 750 1251 l 5
 750 651 l 5
 549 651 l 21
 450 651 351 769.5 349.5 951 c 5
 349.5 1251 l 1053
EndSplineSet
Fore
SplineSet
499 1251 m 1
 499 1301 l 1
 549 1301 l 1
 750 1301 l 2
 780.265075711 1301 800 1272.45980867 800 1251 c 2
 800 651 l 2
 800 620.734924289 771.459808665 601 750 601 c 2
 549 601 l 2
 466.328029477 601 395.448147835 654.357681323 350.590993379 737.616919643 c 1
 305.474240013 654.265559984 233.074041809 601 150 601 c 2
 100 601 l 1
 100 651 l 1
 100 701 l 1
 150 701 l 2
 208.651770114 701 300.915991616 782.151147386 299.550752421 946.618804891 c 0
 299.530745772 947.864884811 299.515068392 949.11260464 299.503739171 950.361933329 c 2
 298.689245656 1000 l 1
 150 1000 l 1
 100 1000 l 1
 100 1050 l 1
 100 1100 l 1
 150 1100 l 1
 299.5 1100 l 1
 299.5 1251 l 1
 299.5 1301 l 1
 349.5 1301 l 1
 399.5 1301 l 1
 399.5 1251 l 1
 399.5 1100 l 1
 549 1100 l 1
 599 1100 l 1
 599 1050 l 1
 599 1000 l 1
 549 1000 l 1
 399.5 1000 l 1
 399.5 951.39950473 l 2
 399.520517419 950.082210258 399.53585186 948.76673414 399.546028737 947.453111848 c 0
 402.25082911 781.296476286 492.552712246 701 549 701 c 2
 700 701 l 1
 700 1201 l 1
 549 1201 l 1
 499 1201 l 1
 499 1251 l 1
EndSplineSet
EndChar

StartChar: NameMe.246
Encoding: 246 -1 178
Width: 900
VWidth: 0
Flags: HW
LayerCount: 2
Back
SplineSet
150 1050 m 5
 549 1050 l 1053
150 651 m 21
 250.5 651 352.471679688 769.895507812 349.5 951 c 1037
349.5 1251 m 29
 349.5 951 l 5
 351 769.5 450 651 549 651 c 13
 549 1251 l 29
 750 1251 l 13
 750 651 l 1053
EndSplineSet
Fore
SplineSet
349.5 1301 m 1
 399.5 1301 l 1
 399.5 1251 l 1
 399.5 1100 l 1
 499 1100 l 1
 499 1251 l 2
 499 1281.26507571 527.540191335 1301 549 1301 c 2
 750 1301 l 2
 780.265075711 1301 800 1272.45980867 800 1251 c 2
 800 651 l 1
 800 601 l 1
 750 601 l 1
 700 601 l 1
 700 651 l 1
 700 1201 l 1
 599 1201 l 1
 599 1100 l 1
 599 1050 l 1
 599 1000 l 1
 599 651 l 2
 599 629.540191335 579.265075711 601 549 601 c 0
 466.327856103 601 395.447966378 654.357425942 350.590856598 737.616666946 c 1
 305.474093681 654.265452326 233.073957856 601 150 601 c 2
 100 601 l 1
 100 651 l 1
 100 701 l 1
 150 701 l 2
 208.651765788 701 300.915978005 782.151135414 299.550752772 946.618768496 c 0
 299.530745953 947.864860546 299.515068439 949.112592596 299.503739167 950.3619336 c 2
 298.689245656 1000 l 1
 150 1000 l 1
 100 1000 l 1
 100 1050 l 1
 100 1100 l 1
 150 1100 l 1
 299.5 1100 l 1
 299.5 1251 l 1
 299.5 1301 l 1
 349.5 1301 l 1
399.5 951.39950473 m 2
 399.519989637 950.116095865 399.535059515 948.834413007 399.545233351 947.554488964 c 0
 401.512470584 828.467671854 451.151078753 747.750251308 499 717.08540637 c 1
 499 1000 l 1
 399.5 1000 l 1
 399.5 951.39950473 l 2
EndSplineSet
EndChar

StartChar: NameMe.278
Encoding: 278 -1 179
Width: 900
VWidth: 0
Flags: HW
LayerCount: 2
Back
SplineSet
549 849 m 29
 750 849 l 1053
150 1050 m 5
 549 1050 l 1053
150 651 m 21
 250.5 651 352.471679688 769.895507812 349.5 951 c 1037
349.5 1251 m 29
 349.5 951 l 5
 351 769.5 450 651 549 651 c 13
 750 651 l 29
 750 1251 l 29
 549 1251 l 1053
EndSplineSet
Fore
SplineSet
349.5 1301 m 1
 399.5 1301 l 1
 399.5 1251 l 1
 399.5 1100 l 1
 549 1100 l 1
 599 1100 l 1
 599 1050 l 1
 599 1000 l 1
 549 1000 l 1
 399.5 1000 l 1
 399.5 951.39950473 l 2
 399.520517395 950.082211832 399.535851823 948.766737284 399.54602878 947.453116558 c 0
 402.250830393 781.297373538 492.552930392 700.999999999 549 701 c 2
 700 701 l 1
 700 799 l 1
 549 799 l 1
 499 799 l 1
 499 849 l 1
 499 899 l 1
 549 899 l 1
 700 899 l 1
 700 1201 l 1
 549 1201 l 1
 499 1201 l 1
 499 1251 l 1
 499 1301 l 1
 549 1301 l 1
 750 1301 l 2
 771.459808665 1301 800 1281.26507571 800 1251 c 2
 800 899 l 1
 800 849 l 1
 800 799 l 1
 800 651 l 2
 800 629.540191335 780.265075711 601 750 601 c 2
 549 601 l 2
 466.327856103 601 395.447966378 654.357425942 350.590856598 737.616666946 c 1
 305.474093681 654.265452326 233.073957856 601 150 601 c 2
 100 601 l 1
 100 651 l 1
 100 701 l 1
 150 701 l 2
 208.651765788 701 300.915978005 782.151135414 299.550752772 946.618768496 c 0
 299.530745953 947.864860546 299.515068439 949.112592596 299.503739167 950.3619336 c 2
 298.689245656 1000 l 1
 150 1000 l 1
 100 1000 l 1
 100 1050 l 1
 100 1100 l 1
 150 1100 l 1
 299.5 1100 l 1
 299.5 1251 l 1
 299.5 1301 l 1
 349.5 1301 l 1
EndSplineSet
EndChar

StartChar: NameMe.310
Encoding: 310 -1 180
Width: 900
VWidth: 0
Flags: HW
LayerCount: 2
Back
SplineSet
150 951 m 5
 549 951 l 1053
150 651 m 21
 250.5 651 352.471679688 769.895507812 349.5 951 c 1037
349.5 1251 m 29
 349.5 951 l 5
 351 769.5 450 651 549 651 c 5
 750 951 l 29
 549 1249.5 l 1053
EndSplineSet
Fore
SplineSet
349.5 1301 m 1
 399.5 1301 l 1
 399.5 1251 l 1
 399.5 1001 l 1
 549 1001 l 1
 599 1001 l 1
 599 951 l 1
 599 901 l 1
 549 901 l 1
 402.840958233 901 l 1
 417.438423796 787.183055286 476.821835796 720.00005876 524.867893304 704.810484117 c 1
 689.768054617 950.930127867 l 1
 507.526183098 1221.57290721 l 1
 479.59909031 1263.04672411 l 1
 521.072907212 1290.9738169 l 1
 562.546724114 1318.90090969 l 1
 590.473816902 1277.42709279 l 1
 791.473816902 978.927092788 l 2
 801.862860954 963.498587069 803.035808654 940.329369552 791.538498899 923.169205738 c 2
 590.538498899 623.169205738 l 2
 582.01953039 610.454327367 565.861607815 601 549 601 c 0
 466.327856103 601 395.447966378 654.357425942 350.590856598 737.616666946 c 1
 305.474093681 654.265452326 233.073957856 601 150 601 c 2
 100 601 l 1
 100 651 l 1
 100 701 l 1
 150 701 l 2
 202.948243099 701 283.289577691 767.135634664 297.409858102 901 c 1
 150 901 l 1
 100 901 l 1
 100 951 l 1
 100 1001 l 1
 150 1001 l 1
 299.5 1001 l 1
 299.5 1251 l 1
 299.5 1301 l 1
 349.5 1301 l 1
EndSplineSet
EndChar

StartChar: NameMe.342
Encoding: 342 -1 181
Width: 900
VWidth: 0
Flags: HW
LayerCount: 2
Back
SplineSet
150 951 m 5
 549 951 l 1053
150 651 m 21
 250.5 651 352.471679688 769.895507812 349.5 951 c 1037
349.5 1251 m 29
 349.5 951 l 5
 351 769.5 450 651 549 651 c 5
 750 651 l 29
 750 1251 l 29
 549 1251 l 29
 549 651 l 1053
EndSplineSet
Fore
SplineSet
599 701 m 1
 700 701 l 1
 700 1201 l 1
 599 1201 l 1
 599 1001 l 1
 599 951 l 1
 599 901 l 1
 599 701 l 1
100 651 m 1
 100 701 l 1
 150 701 l 2
 202.948243099 701 283.289577691 767.135634664 297.409858102 901 c 1
 150 901 l 1
 100 901 l 1
 100 951 l 1
 100 1001 l 1
 150 1001 l 1
 299.5 1001 l 1
 299.5 1251 l 1
 299.5 1301 l 1
 349.5 1301 l 1
 399.5 1301 l 1
 399.5 1251 l 1
 399.5 1001 l 1
 499 1001 l 1
 499 1251 l 2
 499 1272.45980867 518.734924289 1301 549 1301 c 2
 750 1301 l 2
 771.459808665 1301 800 1281.26507571 800 1251 c 2
 800 651 l 2
 800 629.540191335 780.265075711 601 750 601 c 2
 549 601 l 1
 499 601 l 1
 499 608.17369479 l 1
 437.769267875 625.915318894 385.987316962 672.279019016 350.531851932 737.507704313 c 1
 305.410983989 654.219033549 233.037752099 601 150 601 c 2
 100 601 l 1
 100 651 l 1
499 901 m 1
 402.871997166 901 l 1
 414.912089725 807.753791727 457.161974593 743.89806032 499 717.08540637 c 1
 499 901 l 1
EndSplineSet
EndChar

StartChar: NameMe.374
Encoding: 374 -1 183
Width: 900
VWidth: 0
Flags: HW
LayerCount: 2
Back
SplineSet
150 951 m 5
 744 951 l 1053
150 651 m 21
 250.5 651 352.471679688 769.895507812 349.5 951 c 1037
349.5 1251 m 29
 349.5 951 l 5
 351 769.5 450 651 549 651 c 5
 750 651 l 29
 750 1251 l 29
 549 1251 l 29
 549 651 l 1053
EndSplineSet
Fore
SplineSet
599 701 m 1
 700 701 l 1
 700 901 l 1
 599 901 l 1
 599 701 l 1
100 651 m 1
 100 701 l 1
 150 701 l 2
 202.948243099 701 283.289577691 767.135634664 297.409858102 901 c 1
 150 901 l 1
 100 901 l 1
 100 951 l 1
 100 1001 l 1
 150 1001 l 1
 299.5 1001 l 1
 299.5 1251 l 1
 299.5 1301 l 1
 349.5 1301 l 1
 399.5 1301 l 1
 399.5 1251 l 1
 399.5 1001 l 1
 499 1001 l 1
 499 1251 l 2
 499 1272.45980867 518.734924289 1301 549 1301 c 2
 750 1301 l 2
 771.459808665 1301 800 1281.26507571 800 1251 c 2
 800 651 l 2
 800 629.540191335 780.265075711 601 750 601 c 2
 549 601 l 1
 499 601 l 1
 499 608.17369479 l 1
 437.769267875 625.915318894 385.987316962 672.279019016 350.531851932 737.507704313 c 1
 305.410983989 654.219033549 233.037752099 601 150 601 c 2
 100 601 l 1
 100 651 l 1
499 901 m 1
 402.871997166 901 l 1
 414.912089725 807.753791727 457.161974593 743.89806032 499 717.08540637 c 1
 499 901 l 1
700 1001 m 1
 700 1201 l 1
 599 1201 l 1
 599 1001 l 1
 700 1001 l 1
EndSplineSet
EndChar

StartChar: NameMe.272
Encoding: 272 -1 184
Width: 900
VWidth: 0
Flags: HW
LayerCount: 2
Back
SplineSet
51 1206 m 29
 52.5 696 l 1053
450 651 m 5
 51 1251 l 21
 -150 1251 l 5
 -150 651 l 5
 52.5 651 l 13
 450 1251 l 1029
EndSplineSet
Fore
SplineSet
250.797253224 1040.84824519 m 1
 408.317500384 1278.614656 l 1
 435.93215638 1320.29715561 l 1
 477.614655996 1292.68249962 l 1
 519.297155612 1265.06784362 l 1
 491.682499616 1223.385344 l 1
 310.887413867 950.487101365 l 1
 491.634513529 678.686951497 l 1
 519.321465026 637.052437968 l 1
 477.686951497 609.365486471 l 1
 436.052437968 581.678534974 l 1
 408.365486471 623.313048503 l 1
 250.954159205 860.021811309 l 1
 94.1824996161 623.385344004 l 2
 85.6088097537 610.443925344 69.4206399855 601 52.5 601 c 2
 -150 601 l 2
 -171.459808665 601 -200 620.734924289 -200 651 c 2
 -200 1251 l 2
 -200 1272.45980867 -180.265075711 1301 -150 1301 c 2
 51 1301 l 2
 66.4504920403 1301 83.2757407337 1292.76029405 92.6345135292 1278.6869515 c 2
 250.797253224 1040.84824519 l 1
1.01448961984 1201 m 1
 -100 1201 l 1
 -100 701 l 1
 2.48507785514 701 l 1
 1.01448961984 1201 l 1
101.356153857 1084.98121785 m 1
 102.14589615 816.468838284 l 1
 190.863998562 950.382955133 l 1
 101.356153857 1084.98121785 l 1
EndSplineSet
EndChar

StartChar: NameMe.274
Encoding: 274 -1 185
Width: 900
VWidth: 0
Flags: HW
LayerCount: 2
Back
SplineSet
51 1206 m 29
 52.5 696 l 1053
450 651 m 5
 51 1251 l 21
 -150 1251 l 1029
-150 651 m 5
 52.5 651 l 13
 450 1251 l 1029
EndSplineSet
Fore
SplineSet
-200 651 m 1
 -200 701 l 1
 -150 701 l 1
 2.48507785514 701 l 1
 1.01448961984 1201 l 1
 -150 1201 l 1
 -200 1201 l 1
 -200 1251 l 1
 -200 1301 l 1
 -150 1301 l 1
 51 1301 l 2
 66.4504920403 1301 83.2757407337 1292.76029405 92.6345135292 1278.6869515 c 2
 250.797253224 1040.84824519 l 1
 408.317500384 1278.614656 l 1
 435.93215638 1320.29715561 l 1
 477.614655996 1292.68249962 l 1
 519.297155612 1265.06784362 l 1
 491.682499616 1223.385344 l 1
 310.887413867 950.487101365 l 1
 491.634513529 678.686951497 l 1
 519.321465026 637.052437968 l 1
 477.686951497 609.365486471 l 1
 436.052437968 581.678534974 l 1
 408.365486471 623.313048503 l 1
 250.954159205 860.021811309 l 1
 94.1824996161 623.385344004 l 2
 85.6088097537 610.443925344 69.4206399855 601 52.5 601 c 2
 -150 601 l 1
 -200 601 l 1
 -200 651 l 1
190.863998562 950.382955133 m 1
 101.356153857 1084.98121785 l 1
 102.14589615 816.468838284 l 1
 190.863998562 950.382955133 l 1
EndSplineSet
EndChar

StartChar: NameMe.273
Encoding: 273 -1 186
Width: 900
VWidth: 0
Flags: HW
LayerCount: 2
Back
SplineSet
450 651 m 5
 51 1251 l 21
 -150 1251 l 5
 -150 651 l 5
 52.5 651 l 13
 450 1251 l 1029
EndSplineSet
Fore
SplineSet
190.863998562 950.382955133 m 1
 24.2036637254 1201 l 1
 -100 1201 l 1
 -100 701 l 1
 25.6477907868 701 l 1
 190.863998562 950.382955133 l 1
250.797253224 1040.84824519 m 1
 408.317500384 1278.614656 l 1
 435.93215638 1320.29715561 l 1
 477.614655996 1292.68249962 l 1
 519.297155612 1265.06784362 l 1
 491.682499616 1223.385344 l 1
 310.887413867 950.487101365 l 1
 491.634513529 678.686951497 l 1
 519.321465026 637.052437968 l 1
 477.686951497 609.365486471 l 1
 436.052437968 581.678534974 l 1
 408.365486471 623.313048503 l 1
 250.954159205 860.021811309 l 1
 94.1824996161 623.385344004 l 2
 85.6088097537 610.443925344 69.4206399855 601 52.5 601 c 2
 -150 601 l 2
 -171.459808665 601 -200 620.734924289 -200 651 c 2
 -200 1251 l 2
 -200 1272.45980867 -180.265075711 1301 -150 1301 c 2
 51 1301 l 2
 66.4504920403 1301 83.2757407337 1292.76029405 92.6345135292 1278.6869515 c 2
 250.797253224 1040.84824519 l 1
EndSplineSet
EndChar

StartChar: NameMe.276
Encoding: 276 -1 187
Width: 900
VWidth: 0
Flags: HW
LayerCount: 2
Back
SplineSet
51 1210.5 m 5
 51 651 l 29
 450 1251 l 1029
450 651 m 5
 51 1251 l 21
 -150 1251 l 5
 -150 651 l 1029
EndSplineSet
Fore
SplineSet
477.686951497 609.365486471 m 1
 436.052437968 581.678534974 l 1
 408.365486471 623.313048503 l 1
 250.5 860.704757482 l 1
 92.6345135292 623.313048503 l 2
 84.5476139647 611.152297278 70.2469616992 602.36012772 54.9228542721 601.154125403 c 0
 26.2706403051 598.899205394 1 622.259192262 1 651 c 2
 1 1201 l 1
 -100 1201 l 1
 -100 651 l 1
 -100 601 l 1
 -150 601 l 1
 -200 601 l 1
 -200 651 l 1
 -200 1251 l 2
 -200 1272.45980867 -180.265075711 1301 -150 1301 c 2
 51 1301 l 2
 66.4504920403 1301 83.2757407337 1292.76029405 92.6345135292 1278.6869515 c 2
 250.5 1041.29524252 l 1
 408.365486471 1278.6869515 l 1
 436.052437968 1320.32146503 l 1
 477.686951497 1292.63451353 l 1
 519.321465026 1264.94756203 l 1
 491.634513529 1223.3130485 l 1
 310.546336275 951 l 1
 491.634513529 678.686951497 l 1
 519.321465026 637.052437968 l 1
 477.686951497 609.365486471 l 1
190.453663725 951 m 1
 101 1085.51678756 l 1
 101 816.483212443 l 1
 190.453663725 951 l 1
EndSplineSet
EndChar

StartChar: NameMe.406
Encoding: 406 -1 188
Width: 1500
VWidth: 0
Flags: HW
LayerCount: 2
Back
SplineSet
150 951 m 5
 552 951 l 1053
150 651 m 21
 250.5 651 352.471679688 769.895507812 349.5 951 c 1037
349.5 1251 m 29
 349.5 951 l 5
 351 769.5 450 651 549 651 c 5
 750 651 l 29
 750 951 l 5
 552 951 l 29
 552 1251 l 5
 750 1251 l 1053
549 651 m 1053
EndSplineSet
Fore
SplineSet
349.5 1301 m 1
 399.5 1301 l 1
 399.5 1251 l 1
 399.5 1001 l 1
 502 1001 l 1
 502 1251 l 2
 502 1281.26507571 530.540191335 1301 552 1301 c 2
 750 1301 l 1
 800 1301 l 1
 800 1251 l 1
 800 1201 l 1
 750 1201 l 1
 602 1201 l 1
 602 1001 l 1
 750 1001 l 2
 771.459808665 1001 800 981.265075711 800 951 c 2
 800 651 l 2
 800 629.540191335 780.265075711 601 750 601 c 2
 599 601 l 1
 549 601 l 1
 499 601 l 1
 499 607.733850012 l 1
 437.927403662 624.527011312 386.103891231 671.700955394 350.590856598 737.616666946 c 1
 305.474093681 654.265452326 233.073957856 601 150 601 c 2
 100 601 l 1
 100 651 l 1
 100 701 l 1
 150 701 l 2
 202.948243099 701 283.289577691 767.135634664 297.409858102 901 c 1
 150 901 l 1
 100 901 l 1
 100 951 l 1
 100 1001 l 1
 150 1001 l 1
 299.5 1001 l 1
 299.5 1251 l 1
 299.5 1301 l 1
 349.5 1301 l 1
599 701 m 1
 700 701 l 1
 700 901 l 1
 602 901 l 1
 552 901 l 1
 402.75978803 901 l 1
 419.652790396 766.307041094 498.093793611 701 549 701 c 2
 599 701 l 1
EndSplineSet
EndChar

StartChar: NameMe.438
Encoding: 438 -1 189
Width: 1500
VWidth: 0
Flags: HW
LayerCount: 2
Back
SplineSet
750 651 m 25
 537 1251 l 1049
150 951 m 1
 537 951 l 1025
150 651 m 16
 203 651 249.75 679.25 290.25 735.75 c 128
 330.75 792.25 350.5 864 349.5 951 c 1024
349.5 1251 m 25
 349.5 951 l 2
 350.5 864 371 792.25 411 735.75 c 128
 451 679.25 493.5 651 550.5 651 c 9
 750 1251 l 1025
EndSplineSet
Fore
SplineSet
349.5 1301 m 1
 399.5 1301 l 1
 399.5 1251 l 1
 399.5 1001 l 1
 537 1001 l 1
 572.69283743 1001 l 1
 489.881008352 1234.27275797 l 1
 473.153766317 1281.39174961 l 1
 520.272757965 1298.11899165 l 1
 567.391749613 1314.84623368 l 1
 584.118991648 1267.72724203 l 1
 645.437870551 1094.99800569 l 1
 702.553986942 1266.77579934 l 1
 718.329786284 1314.2218124 l 1
 765.775799342 1298.44601306 l 1
 813.2218124 1282.67021372 l 1
 797.446013058 1235.22420066 l 1
 699.85378488 941.713739972 l 1
 797.118991648 667.727242035 l 1
 813.846233683 620.608250387 l 1
 766.727242035 603.881008352 l 1
 719.608250387 587.153766317 l 1
 702.881008352 634.272757965 l 1
 648.53303854 787.365630677 l 1
 597.946013058 635.224200658 l 2
 591.941775619 617.166343699 572.70872349 601 550.5 601 c 0
 473.795881873 601 415.23137572 643.24058317 370.191679713 706.859153779 c 0
 363.141327228 716.817776664 356.643243884 727.126638251 350.686259559 737.775928382 c 1
 344.667265776 727.032564198 338.071596347 716.641628032 330.888018229 706.620093128 c 0
 284.543857218 641.967127767 222.871689153 601 150 601 c 2
 100 601 l 1
 100 651 l 1
 100 701 l 1
 150 701 l 2
 183.128310847 701 214.956142782 716.532872233 249.611981771 764.879906872 c 0
 275.423894376 800.889118285 291.899070239 845.462028098 297.448265625 901 c 1
 150 901 l 1
 100 901 l 1
 100 951 l 1
 100 1001 l 1
 150 1001 l 1
 299.5 1001 l 1
 299.5 1251 l 1
 299.5 1301 l 1
 349.5 1301 l 1
402.691853786 901 m 1
 409.349296896 845.097682356 426.126074438 800.917018482 451.808320287 764.640846221 c 0
 475.549772845 731.106044483 496.603997854 714.479846445 516.386221003 706.872743888 c 1
 580.933533661 901 l 1
 537 901 l 1
 402.691853786 901 l 1
587 919.245011547 m 1
 594.117124211 940.649896392 l 1
 587 960.698133605 l 1
 587 951 l 1
 587 919.245011547 l 1
EndSplineSet
EndChar

StartChar: NameMe.198
Encoding: 198 -1 196
Width: 1500
VWidth: 0
Flags: HW
AnchorPoint: "Above" 0 0 mark 0
LayerCount: 2
Back
SplineSet
750 651 m 29
 549 651 l 29
 549 1251 l 1053
549 852 m 5
 150 852 l 1053
349.5 951 m 21
 346.52734375 1132.10449219 448.5 1251 549 1251 c 13
 750 1251 l 1053
150 1251 m 21
 249 1251 348 1132.5 349.5 951 c 5
 349.5 651 l 1053
EndSplineSet
Fore
SplineSet
100 1251 m 1
 100 1301 l 1
 150 1301 l 2
 232.671871826 1301 303.551682927 1247.64244608 348.408845965 1164.38337855 c 1
 384.199950925 1230.50563758 437.161167894 1277.69431039 499 1294.37724005 c 1
 499 1301 l 1
 549 1301 l 1
 599 1301 l 1
 750 1301 l 1
 800 1301 l 1
 800 1251 l 1
 800 1201 l 1
 750 1201 l 1
 599 1201 l 1
 599 902 l 1
 599 852 l 1
 599 802 l 1
 599 701 l 1
 750 701 l 1
 800 701 l 1
 800 651 l 1
 800 601 l 1
 750 601 l 1
 549 601 l 2
 518.734924289 601 499 629.540191335 499 651 c 2
 499 802 l 1
 399.5 802 l 1
 399.5 651 l 1
 399.5 601 l 1
 349.5 601 l 1
 299.5 601 l 1
 299.5 651 l 1
 299.5 802 l 1
 150 802 l 1
 100 802 l 1
 100 852 l 1
 100 902 l 1
 150 902 l 1
 299.5 902 l 1
 299.5 950.600364191 l 2
 299.479462382 951.918523551 299.464114648 953.234862167 299.453931301 954.549344494 c 0
 296.748280947 1120.70431508 206.447009625 1201 150 1201 c 2
 100 1201 l 1
 100 1251 l 1
399.496259614 951.63820056 m 2
 400.311022989 902 l 1
 499 902 l 1
 499 1184.7100567 l 1
 448.920765415 1153.50300269 398.436742964 1077.35533442 399.449204799 955.38383743 c 0
 399.469230999 954.136923567 399.484922131 952.888367573 399.496259614 951.63820056 c 2
EndSplineSet
EndChar

StartChar: NameMe.230
Encoding: 230 -1 197
Width: 1500
VWidth: 0
Flags: HW
LayerCount: 2
Back
SplineSet
549 1251 m 29
 549 651 l 29
 750 651 l 29
 750 1251 l 1053
549 852 m 5
 150 852 l 1053
349.5 951 m 21
 346.52734375 1132.10449219 448.5 1251 549 1251 c 1037
150 1251 m 21
 249 1251 348 1132.5 349.5 951 c 5
 349.5 651 l 1053
EndSplineSet
Fore
SplineSet
100 1251 m 1
 100 1301 l 1
 150 1301 l 2
 232.671871826 1301 303.551682927 1247.64244608 348.408845965 1164.38337855 c 1
 384.199950925 1230.50563758 437.161167894 1277.69431039 499 1294.37724005 c 1
 499 1301 l 1
 549 1301 l 1
 599 1301 l 1
 599 1251 l 1
 599 1201 l 1
 599 902 l 1
 599 852 l 1
 599 802 l 1
 599 701 l 1
 700 701 l 1
 700 1251 l 1
 700 1301 l 1
 750 1301 l 1
 800 1301 l 1
 800 1251 l 1
 800 651 l 2
 800 629.540191335 780.265075711 601 750 601 c 2
 549 601 l 2
 527.540191335 601 499 620.734924289 499 651 c 2
 499 802 l 1
 399.5 802 l 1
 399.5 651 l 1
 399.5 601 l 1
 349.5 601 l 1
 299.5 601 l 1
 299.5 651 l 1
 299.5 802 l 1
 150 802 l 1
 100 802 l 1
 100 852 l 1
 100 902 l 1
 150 902 l 1
 299.5 902 l 1
 299.5 950.600364191 l 2
 299.479462382 951.918523551 299.464114648 953.234862167 299.453931301 954.549344494 c 0
 296.748280947 1120.70431508 206.447009625 1201 150 1201 c 2
 100 1201 l 1
 100 1251 l 1
399.496259614 951.63820056 m 2
 400.311022989 902 l 1
 499 902 l 1
 499 1184.7100567 l 1
 448.920765415 1153.50300269 398.436742964 1077.35533442 399.449204799 955.38383743 c 0
 399.469230999 954.136923567 399.484922131 952.888367573 399.496259614 951.63820056 c 2
EndSplineSet
EndChar

StartChar: NameMe.262
Encoding: 262 -1 198
Width: 1500
VWidth: 0
Flags: HW
LayerCount: 2
Back
SplineSet
750 651 m 29
 549 651 l 29
 549 1251 l 1053
750 951 m 5
 150 951 l 1029
349.5 951 m 21
 346.52734375 1132.10449219 448.5 1251 549 1251 c 13
 750 1251 l 1053
150 1251 m 21
 249 1251 348 1132.5 349.5 951 c 5
 349.5 651 l 1053
EndSplineSet
Fore
SplineSet
100 1251 m 1
 100 1301 l 1
 150 1301 l 2
 232.671871826 1301 303.551682927 1247.64244608 348.408845965 1164.38337855 c 1
 384.199950925 1230.50563758 437.161167894 1277.69431039 499 1294.37724005 c 1
 499 1301 l 1
 549 1301 l 1
 599 1301 l 1
 750 1301 l 1
 800 1301 l 1
 800 1251 l 1
 800 1201 l 1
 750 1201 l 1
 599 1201 l 1
 599 1001 l 1
 750 1001 l 1
 800 1001 l 1
 800 951 l 1
 800 901 l 1
 750 901 l 1
 599 901 l 1
 599 701 l 1
 750 701 l 1
 800 701 l 1
 800 651 l 1
 800 601 l 1
 750 601 l 1
 549 601 l 2
 518.734924289 601 499 629.540191335 499 651 c 2
 499 901 l 1
 399.5 901 l 1
 399.5 651 l 1
 399.5 601 l 1
 349.5 601 l 1
 299.5 601 l 1
 299.5 651 l 1
 299.5 901 l 1
 150 901 l 1
 100 901 l 1
 100 951 l 1
 100 1001 l 1
 150 1001 l 1
 296.240245458 1001 l 1
 279.347334122 1135.69361808 200.906430701 1201 150 1201 c 2
 100 1201 l 1
 100 1251 l 1
401.589883517 1001 m 1
 499 1001 l 1
 499 1184.7100567 l 1
 455.486993106 1157.59477094 411.668388351 1096.55120622 401.589883517 1001 c 1
EndSplineSet
EndChar

StartChar: NameMe.294
Encoding: 294 -1 199
Width: 1500
VWidth: 0
Flags: HW
LayerCount: 2
Back
SplineSet
750 1251 m 1
 550.5 951 l 25
 750 651 l 1025
550.5 951 m 1
 150 951 l 1025
349.5 951 m 17
 346.52734375 1132.10449219 448.5 1251 549 1251 c 1033
150 1251 m 17
 249 1251 348 1132.5 349.5 951 c 1
 349.5 651 l 1049
EndSplineSet
Fore
SplineSet
100 1251 m 1
 100 1301 l 1
 150 1301 l 2
 232.671871826 1301 303.551682927 1247.64244608 348.408845965 1164.38337855 c 1
 393.525748261 1247.73457722 465.926237295 1301 549 1301 c 2
 599 1301 l 1
 599 1251 l 1
 599 1201 l 1
 549 1201 l 2
 496.051497809 1201 415.70956492 1134.86435901 401.589883517 1001 c 1
 523.703663725 1001 l 1
 708.365486471 1278.6869515 l 1
 736.052437968 1320.32146503 l 1
 777.686951497 1292.63451353 l 1
 819.321465026 1264.94756203 l 1
 791.634513529 1223.3130485 l 1
 610.546336275 951 l 1
 791.634513529 678.686951497 l 1
 819.321465026 637.052437968 l 1
 777.686951497 609.365486471 l 1
 736.052437968 581.678534974 l 1
 708.365486471 623.313048503 l 1
 523.703663725 901 l 1
 399.5 901 l 1
 399.5 651 l 1
 399.5 601 l 1
 349.5 601 l 1
 299.5 601 l 1
 299.5 651 l 1
 299.5 901 l 1
 150 901 l 1
 100 901 l 1
 100 951 l 1
 100 1001 l 1
 150 1001 l 1
 296.240245458 1001 l 1
 279.347334122 1135.69361808 200.906430701 1201 150 1201 c 2
 100 1201 l 1
 100 1251 l 1
EndSplineSet
EndChar

StartChar: NameMe.326
Encoding: 326 -1 200
Width: 1500
VWidth: 0
Flags: HW
LayerCount: 2
Back
SplineSet
547.5 951 m 1053
547.5 951 m 5
 150 951 l 1029
349.5 951 m 21
 346.52734375 1132.10449219 448.5 1251 549 1251 c 13
 750 1251 l 29
 750 651 l 29
 546 651 l 29
 549 1236 l 1053
150 1251 m 21
 249 1251 348 1132.5 349.5 951 c 5
 349.5 651 l 1053
EndSplineSet
Fore
SplineSet
100 1251 m 1
 100 1301 l 1
 150 1301 l 2
 232.62684651 1301 303.474473341 1247.70055016 348.335531572 1164.5193873 c 1
 387.793100109 1237.0626275 448.200556362 1286.4176944 518.609864972 1298.4108767 c 0
 528.617741736 1300.1155702 538.782770694 1301 549 1301 c 2
 750 1301 l 2
 780.265075711 1301 800 1272.45980867 800 1251 c 2
 800 651 l 2
 800 620.734924289 771.459808665 601 750 601 c 2
 546 601 l 2
 515.818575808 601 495.888175788 629.322482968 496.000657449 651.256406885 c 2
 497.281393824 901 l 1
 399.5 901 l 1
 399.5 651 l 1
 399.5 601 l 1
 349.5 601 l 1
 299.5 601 l 1
 299.5 651 l 1
 299.5 901 l 1
 150 901 l 1
 100 901 l 1
 100 951 l 1
 100 1001 l 1
 150 1001 l 1
 296.240245458 1001 l 1
 279.347334122 1135.69361808 200.906430701 1201 150 1201 c 2
 100 1201 l 1
 100 1251 l 1
401.690332115 1001 m 1
 497.5 1001 l 1
 497.794214337 1001 l 1
 498.740465218 1185.51892182 l 1
 455.343422045 1158.89303411 411.917167012 1094.92547149 401.690332115 1001 c 1
597.28270874 901 m 1
 596.257067714 701 l 1
 700 701 l 1
 700 1201 l 1
 598.821170278 1201 l 1
 597.5 943.371795715 l 1
 597.5 901 l 1
 597.28270874 901 l 1
EndSplineSet
EndChar

StartChar: NameMe.196
Encoding: 196 -1 201
Width: 1500
VWidth: 0
Flags: HW
LayerCount: 2
Back
SplineSet
163.5 951 m 29
 435 951 l 1053
150 651 m 29
 150 1251 l 29
 450 1251 l 29
 450 651 l 29
 750 651 l 29
 750 1251 l 29
 450 1251 l 1053
EndSplineSet
Fore
SplineSet
500 1201 m 1
 500 701 l 1
 700 701 l 1
 700 1201 l 1
 500 1201 l 1
450 1301 m 1
 750 1301 l 2
 771.459808665 1301 800 1281.26507571 800 1251 c 2
 800 651 l 2
 800 629.540191335 780.265075711 601 750 601 c 2
 450 601 l 2
 428.540191335 601 400 620.734924289 400 651 c 2
 400 901 l 1
 200 901 l 1
 200 601 l 1
 100 601 l 1
 100 1251 l 2
 100 1281.26507571 128.540191335 1301 150 1301 c 2
 450 1301 l 1
400 1001 m 1
 400 1201 l 1
 200 1201 l 1
 200 1001 l 1
 400 1001 l 1
EndSplineSet
EndChar

StartChar: NameMe.228
Encoding: 228 -1 202
Width: 1500
VWidth: 0
Flags: HW
LayerCount: 2
Back
SplineSet
163.5 951 m 29
 435 951 l 1053
150 651 m 29
 150 1251 l 29
 450 1251 l 29
 450 651 l 1045
750 651 m 13
 750 1251 l 29
 450 1251 l 1053
EndSplineSet
Fore
SplineSet
750 601 m 1
 700 601 l 1
 700 651 l 1
 700 1201 l 1
 500 1201 l 1
 500 651 l 1
 500 601 l 1
 450 601 l 1
 400 601 l 1
 400 651 l 1
 400 901 l 1
 200 901 l 1
 200 651 l 1
 200 601 l 1
 150 601 l 1
 100 601 l 1
 100 651 l 1
 100 1251 l 2
 100 1281.26507571 128.540191335 1301 150 1301 c 2
 400 1301 l 1
 450 1301 l 1
 750 1301 l 2
 771.459808665 1301 800 1281.26507571 800 1251 c 2
 800 651 l 1
 800 601 l 1
 750 601 l 1
400 1201 m 1
 200 1201 l 1
 200 1001 l 1
 400 1001 l 1
 400 1201 l 1
EndSplineSet
EndChar

StartChar: NameMe.260
Encoding: 260 -1 203
Width: 1500
VWidth: 0
Flags: HW
LayerCount: 2
Back
SplineSet
163.5 951 m 5
 750 951 l 1053
450 1251 m 29
 750 1251 l 29
 750 651 l 29
 450 651 l 29
 450 1251 l 29
 150 1251 l 29
 150 651 l 1053
EndSplineSet
Fore
SplineSet
400 1301 m 1
 450 1301 l 1
 750 1301 l 2
 780.265075711 1301 800 1272.45980867 800 1251 c 2
 800 1001 l 1
 800 951 l 1
 800 901 l 1
 800 651 l 2
 800 620.734924289 771.459808665 601 750 601 c 2
 450 601 l 2
 419.734924289 601 400 629.540191335 400 651 c 2
 400 901 l 1
 200 901 l 1
 200 601 l 1
 100 601 l 1
 100 1251 l 2
 100 1272.45980867 119.734924289 1301 150 1301 c 2
 400 1301 l 1
500 901 m 1
 500 701 l 1
 700 701 l 1
 700 901 l 1
 500 901 l 1
400 1001 m 1
 400 1201 l 1
 200 1201 l 1
 200 1001 l 1
 400 1001 l 1
500 1001 m 1
 700 1001 l 1
 700 1201 l 1
 500 1201 l 1
 500 1001 l 1
EndSplineSet
EndChar
